<svg width="96" height="29" viewBox="0 0 96 29" fill="none" xmlns="http://www.w3.org/2000/svg">
<g id="Amazon_logo 1" clip-path="url(#clip0_685_265)">
<path id="path8" d="M59.4571 22.6557C53.8931 26.7663 45.8284 28.9594 38.8849 28.9594C29.149 28.9594 20.3841 25.3501 13.7531 19.3472C13.2322 18.8751 13.699 18.2318 14.3241 18.5994C21.4802 22.7727 30.3284 25.2833 39.4684 25.2833C45.6325 25.2833 52.4135 24.005 58.6485 21.3523C59.5905 20.9513 60.3782 21.9706 59.4571 22.6557Z" fill="#FF9900"/>
<path id="path10" d="M61.7703 20.003C61.0618 19.0924 57.0691 19.5728 55.2769 19.7858C54.7309 19.8527 54.6476 19.3764 55.1394 19.0339C58.3194 16.7906 63.5375 17.4381 64.146 18.1901C64.7544 18.9462 63.9876 24.1888 60.9993 26.6911C60.5408 27.0754 60.1032 26.8707 60.3074 26.3611C60.9784 24.6817 62.483 20.9179 61.7703 20.003Z" fill="#FF9900"/>
<path id="path12" d="M55.402 3.19736V1.01675C55.402 0.686734 55.652 0.465332 55.9521 0.465332H65.6922C66.0048 0.465332 66.2549 0.690912 66.2549 1.01675V2.88405C66.2507 3.19736 65.9881 3.60674 65.5214 4.25424L60.4742 11.477C62.3497 11.431 64.3294 11.7109 66.0298 12.6717C66.4133 12.8889 66.5175 13.2064 66.5466 13.5197V15.8466C66.5466 16.164 66.1965 16.5358 65.8298 16.3437C62.8331 14.7688 58.8529 14.5975 55.5395 16.3604C55.2019 16.5442 54.8477 16.1766 54.8477 15.8591V13.6492C54.8477 13.2942 54.8518 12.6884 55.2061 12.1495L61.0535 3.7446H55.9646C55.652 3.7446 55.402 3.5232 55.402 3.19736Z" fill="white"/>
<path id="path14" d="M19.8715 16.8032H16.9082C16.6248 16.7823 16.3997 16.5692 16.3789 16.2977V1.05433C16.3789 0.749378 16.6331 0.507086 16.9499 0.507086H19.7131C20.0007 0.51961 20.2299 0.74102 20.2508 1.01673V3.00936H20.305C21.026 1.08357 22.3805 0.185425 24.206 0.185425C26.0607 0.185425 27.2193 1.08357 28.0529 3.00936C28.7697 1.08357 30.3993 0.185425 32.1456 0.185425C33.3876 0.185425 34.7463 0.699246 35.5757 1.85221C36.5135 3.13468 36.3218 4.9978 36.3218 6.63117L36.3176 16.2517C36.3176 16.5567 36.0634 16.8032 35.7466 16.8032H32.7875C32.4916 16.7823 32.254 16.5442 32.254 16.2517V8.17263C32.254 7.52931 32.3124 5.92519 32.1707 5.31528C31.9498 4.29182 31.2871 4.00358 30.4285 4.00358C29.7117 4.00358 28.9615 4.48398 28.6572 5.25262C28.353 6.02127 28.3821 7.30791 28.3821 8.17263V16.2517C28.3821 16.5567 28.1279 16.8032 27.8111 16.8032H24.852C24.5519 16.7823 24.3185 16.5442 24.3185 16.2517L24.3144 8.17263C24.3144 6.47243 24.5936 3.97016 22.4889 3.97016C20.3591 3.97016 20.4425 6.40976 20.4425 8.17263V16.2517C20.4425 16.5567 20.1883 16.8032 19.8715 16.8032Z" fill="white"/>
<path id="path16" d="M74.6404 0.185425C79.0374 0.185425 81.4172 3.97016 81.4172 8.78253C81.4172 13.432 78.7873 17.1206 74.6404 17.1206C70.3226 17.1206 67.9719 13.3359 67.9719 8.61961C67.9719 3.87408 70.3517 0.185425 74.6404 0.185425ZM74.6654 3.2976C72.4815 3.2976 72.3439 6.28026 72.3439 8.13921C72.3439 10.0023 72.3148 13.9792 74.6404 13.9792C76.9368 13.9792 77.0452 10.771 77.0452 8.81595C77.0452 7.52931 76.991 5.99202 76.6034 4.77222C76.27 3.71116 75.6073 3.2976 74.6654 3.2976Z" fill="white"/>
<path id="path18" d="M87.1188 16.8032H84.168C83.8721 16.7823 83.6345 16.5442 83.6345 16.2517L83.6304 1.0042C83.6554 0.72431 83.9013 0.507086 84.2014 0.507086H86.9479C87.2063 0.51961 87.4189 0.69507 87.4772 0.933182V3.26418H87.5314C88.3608 1.17965 89.5236 0.185425 91.57 0.185425C92.8995 0.185425 94.1957 0.665827 95.0293 1.98171C95.8045 3.20151 95.8045 5.25262 95.8045 6.72725V16.3228C95.7711 16.5901 95.5252 16.8032 95.2335 16.8032H92.2619C91.9909 16.7823 91.7659 16.5818 91.7367 16.3228V8.04313C91.7367 6.37635 91.9284 3.93674 89.8821 3.93674C89.161 3.93674 88.4983 4.42132 88.1691 5.15654C87.7523 6.08811 87.6981 7.01549 87.6981 8.04313V16.2517C87.694 16.5567 87.4356 16.8032 87.1188 16.8032Z" fill="white"/>
<path id="use28" d="M47.6373 9.5219V8.87858C45.495 8.87858 43.2319 9.3381 43.2319 11.8696C43.2319 13.1521 43.8946 14.021 45.0324 14.021C45.866 14.021 46.612 13.5072 47.083 12.6717C47.6664 11.644 47.6373 10.679 47.6373 9.5219ZM50.6256 16.7614C50.4297 16.9368 50.1463 16.9493 49.9254 16.8324C48.9418 16.0136 48.7667 15.6335 48.2249 14.8523C46.5995 16.5149 45.4492 17.012 43.3403 17.012C40.8479 17.012 38.9058 15.4705 38.9058 12.3834C38.9058 9.97306 40.2103 8.33134 42.0649 7.52928C43.6737 6.81912 45.9201 6.6938 47.6373 6.49746V6.11314C47.6373 5.40715 47.6915 4.57167 47.2788 3.96177C46.9162 3.41453 46.2244 3.18895 45.6159 3.18895C44.4864 3.18895 43.4778 3.76961 43.2319 4.9727C43.1819 5.24006 42.986 5.50324 42.7193 5.51577L39.8435 5.20664C39.6018 5.15233 39.335 4.95599 39.4017 4.58421C40.0644 1.09189 43.2111 0.0391846 46.0285 0.0391846C47.4706 0.0391846 49.3544 0.423506 50.4922 1.51799C51.9343 2.86729 51.7967 4.66775 51.7967 6.62696V11.2555C51.7967 12.6466 52.3719 13.2565 52.9137 14.0084C53.1054 14.2758 53.1471 14.5975 52.9054 14.798C52.301 15.3034 51.2257 16.2434 50.6339 16.7697L50.6256 16.7614Z" fill="white"/>
<path id="path30" d="M8.78937 9.5219V8.87858C6.64713 8.87858 4.38402 9.3381 4.38402 11.8696C4.38402 13.1521 5.0467 14.021 6.18451 14.021C7.01806 14.021 7.7641 13.5072 8.23506 12.6717C8.81855 11.644 8.78937 10.679 8.78937 9.5219ZM11.7777 16.7614C11.5818 16.9368 11.2984 16.9493 11.0775 16.8324C10.0939 16.0136 9.91884 15.6335 9.37703 14.8523C7.75159 16.5149 6.60129 17.012 4.49238 17.012C2.00005 17.012 0.0578613 15.4705 0.0578613 12.3834C0.0578613 9.97306 1.36238 8.33134 3.21704 7.52928C4.82581 6.81912 7.07224 6.6938 8.78937 6.49746V6.11314C8.78937 5.40715 8.84356 4.57167 8.43094 3.96177C8.06835 3.41453 7.37649 3.18895 6.768 3.18895C5.63853 3.18895 4.62992 3.76961 4.38402 4.9727C4.33401 5.24006 4.13812 5.50324 3.87139 5.51577L0.995613 5.20664C0.753881 5.15233 0.487143 4.95599 0.553827 4.58421C1.21651 1.09189 4.36318 0.0391846 7.18061 0.0391846C8.62266 0.0391846 10.5065 0.423506 11.6443 1.51799C13.0864 2.86729 12.9488 4.66775 12.9488 6.62696V11.2555C12.9488 12.6466 13.524 13.2565 14.0658 14.0084C14.2575 14.2758 14.2992 14.5975 14.0575 14.798C13.4531 15.3034 12.3778 16.2434 11.786 16.7697L11.7777 16.7614Z" fill="white"/>
</g>
<defs>
<clipPath id="clip0_685_265">
<rect width="95.8611" height="29" fill="white"/>
</clipPath>
</defs>
</svg>
