<svg width="142" height="142" viewBox="0 0 142 142" fill="none" xmlns="http://www.w3.org/2000/svg">
<g id="Group 21316">
<g id="Ellipse 339" filter="url(#filter0_d_274_1162)">
<circle cx="71" cy="67" r="27" fill="white"/>
<circle cx="71" cy="67" r="26.5" stroke="#E6E2E2"/>
</g>
<path id="Vector" d="M63.6845 77.9729V81.3969C63.6845 81.7302 63.9548 82.0005 64.2882 82.0005H76.045C76.3783 82.0005 76.6486 81.7302 76.6486 81.3969V78.5603C76.6486 78.2269 76.9188 77.9566 77.2522 77.9566H80.6253C81.9588 77.9566 83.0398 76.8757 83.0398 75.5422V75.1487M83.0398 73.1992V72.3352C83.0398 72.0019 83.3101 71.7316 83.6434 71.7316H85.273C85.7272 71.7316 86.0187 71.249 85.8072 70.847L83.1439 65.7827C83.0756 65.6528 83.0398 65.5082 83.0398 65.3613V63.7088C83.0398 57.353 77.9711 52.101 71.6162 52.0019C65.12 51.9006 59.8221 57.1363 59.8221 63.6093C59.8221 66.9042 61.1958 69.8774 63.4006 71.9903C63.5804 72.1627 63.6846 72.3995 63.6846 72.6486V75.9629M65.2744 57.1942L62.0452 53.9651C61.8754 53.7953 61.6451 53.6999 61.405 53.6999H58.4235M62.7085 63.3467H58.3028M65.2482 69.3762L60.7523 73.872C60.5825 74.0418 60.4871 74.2721 60.4871 74.5123V75.7961M66.9154 62.438C67.3358 60.3836 69.1536 58.8382 71.3323 58.8382C73.8223 58.8382 75.8408 60.8567 75.8408 63.3467C75.8408 65.8367 73.8223 67.8552 71.3323 67.8552C69.1863 67.8552 67.3905 66.3559 66.9353 64.3475M58.1691 53.6999C58.1691 54.2261 57.7425 54.6528 57.2162 54.6528C56.69 54.6528 56.2634 54.2261 56.2634 53.6999C56.2634 53.1736 56.69 52.747 57.2162 52.747C57.7425 52.747 58.1691 53.1736 58.1691 53.6999ZM58.1691 63.3467C58.1691 63.8729 57.7425 64.2995 57.2162 64.2995C56.69 64.2995 56.2634 63.8729 56.2634 63.3467C56.2634 62.8204 56.69 62.3938 57.2162 62.3938C57.7425 62.3938 58.1691 62.8204 58.1691 63.3467ZM61.44 77.0033C61.44 77.5296 61.0134 77.9562 60.4871 77.9562C59.9609 77.9562 59.5342 77.5296 59.5342 77.0033C59.5342 76.4771 59.9609 76.0505 60.4871 76.0505C61.0134 76.0505 61.44 76.4771 61.44 77.0033ZM79.5424 61.8037H77.5798C77.4459 61.8037 77.3285 61.7154 77.2906 61.587C77.1657 61.1636 76.9968 60.7591 76.7894 60.3786C76.7252 60.261 76.7456 60.1154 76.8404 60.0207L78.2287 58.6323C78.3466 58.5145 78.3466 58.3233 78.2287 58.2055L76.4735 56.4502C76.3556 56.3324 76.1646 56.3324 76.0466 56.4502L74.6583 57.8386C74.5636 57.9333 74.418 57.9537 74.3004 57.8896C73.9199 57.6822 73.5154 57.5133 73.0919 57.3883C72.9636 57.3505 72.8752 57.2331 72.8752 57.0993V55.1366C72.8752 54.97 72.7401 54.8348 72.5734 54.8348H70.0912C69.9245 54.8348 69.7894 54.97 69.7894 55.1366V57.0993C69.7894 57.2331 69.701 57.3505 69.5727 57.3883C69.1493 57.5133 68.7448 57.6822 68.3643 57.8896C68.2466 57.9537 68.101 57.9333 68.0063 57.8386L66.618 56.4502C66.5001 56.3324 66.309 56.3324 66.1912 56.4502L64.4359 58.2055C64.3181 58.3233 64.3181 58.5145 64.4359 58.6323L65.8242 60.0207C65.9189 60.1154 65.9394 60.261 65.8753 60.3786C65.6678 60.7591 65.4989 61.1636 65.374 61.587C65.3361 61.7154 65.2187 61.8037 65.0849 61.8037H63.1223C62.9556 61.8037 62.8205 61.9389 62.8205 62.1055V64.5878C62.8205 64.7545 62.9556 64.8896 63.1223 64.8896H65.0849C65.2187 64.8896 65.3361 64.978 65.374 65.1064C65.4989 65.5297 65.6678 65.9342 65.8753 66.3147C65.9394 66.4324 65.9189 66.5779 65.8242 66.6727L64.4359 68.061C64.3181 68.1789 64.3181 68.37 64.4359 68.4878L66.1912 70.2431C66.309 70.3609 66.5001 70.3609 66.618 70.2431L68.0063 68.8548C68.101 68.76 68.2466 68.7396 68.3643 68.8037C68.7448 69.0112 69.1493 69.1801 69.5727 69.305C69.701 69.3429 69.7894 69.4602 69.7894 69.5941V71.5567C69.7894 71.7234 69.9245 71.8585 70.0912 71.8585H72.5734C72.7401 71.8585 72.8752 71.7234 72.8752 71.5567V69.5941C72.8752 69.4602 72.9636 69.3429 73.0919 69.305C73.5154 69.1801 73.9199 69.0112 74.3004 68.8037C74.418 68.7396 74.5636 68.76 74.6583 68.8548L76.0466 70.2431C76.1646 70.3609 76.3556 70.3609 76.4735 70.2431L78.2287 68.4878C78.3466 68.37 78.3466 68.1789 78.2287 68.061L76.8404 66.6727C76.7456 66.5779 76.7252 66.4324 76.7894 66.3147C76.9968 65.9342 77.1657 65.5297 77.2906 65.1064C77.3285 64.978 77.4459 64.8896 77.5798 64.8896H79.5424C79.709 64.8896 79.8442 64.7545 79.8442 64.5878V62.1055C79.8442 61.9389 79.709 61.8037 79.5424 61.8037Z" stroke="#185FC6" stroke-miterlimit="10" stroke-linecap="round" stroke-linejoin="round"/>
</g>
<defs>
<filter id="filter0_d_274_1162" x="0" y="0" width="142" height="142" filterUnits="userSpaceOnUse" color-interpolation-filters="sRGB">
<feFlood flood-opacity="0" result="BackgroundImageFix"/>
<feColorMatrix in="SourceAlpha" type="matrix" values="0 0 0 0 0 0 0 0 0 0 0 0 0 0 0 0 0 0 127 0" result="hardAlpha"/>
<feOffset dy="4"/>
<feGaussianBlur stdDeviation="22"/>
<feComposite in2="hardAlpha" operator="out"/>
<feColorMatrix type="matrix" values="0 0 0 0 0 0 0 0 0 0 0 0 0 0 0 0 0 0 0.15 0"/>
<feBlend mode="normal" in2="BackgroundImageFix" result="effect1_dropShadow_274_1162"/>
<feBlend mode="normal" in="SourceGraphic" in2="effect1_dropShadow_274_1162" result="shape"/>
</filter>
</defs>
</svg>
