<svg width="142" height="142" viewBox="0 0 142 142" fill="none" xmlns="http://www.w3.org/2000/svg">
<g id="Group 21370">
<g id="Ellipse 339" filter="url(#filter0_d_446_19)">
<circle cx="71" cy="67" r="27" fill="white"/>
<circle cx="71" cy="67" r="26.5" stroke="#E6E2E2"/>
</g>
<g id="Vector">
<path d="M59.7621 66.3318L62.0416 66.97C62.1662 67.0049 62.2988 67.0021 62.4219 66.962L74.8019 62.9279C75.7513 63.9935 77.0332 64.7218 78.4227 65.0032C79.0346 67.6978 80.7213 68.8349 82.3237 68.8349C82.6945 68.8349 83.0609 68.7721 83.403 68.6445C85.1276 68.0013 85.7733 65.6062 84.8731 63.1915C84.8242 63.0606 84.7713 62.936 84.7163 62.8148C86.1484 61.1209 86.683 58.776 85.9519 56.5326C85.0685 53.8215 82.5605 52 79.7112 52C76.3309 52 73.4993 54.5802 73.1744 57.9344L72.6544 58.1039C72.5312 58.144 72.4226 58.2198 72.3424 58.3215L71.1476 59.8364L69.2897 59.3162C69.0345 59.2447 68.7613 59.3338 68.5972 59.5418L67.4025 61.0567L65.5445 60.5365C65.2892 60.4652 65.0162 60.5541 64.852 60.7622L63.7195 62.1983L62.5441 61.6005C62.3887 61.5216 62.2086 61.5076 62.0431 61.5615L60.7947 61.9683C60.5983 62.0324 60.4434 62.1851 60.3768 62.3807L59.3177 65.4879C59.2595 65.6587 59.2741 65.8458 59.3582 66.0055C59.4423 66.1652 59.5884 66.2831 59.7621 66.3318ZM82.9441 67.4142C82.4261 67.6074 81.8023 67.5415 81.275 67.2384C80.7895 66.9592 80.1807 66.3701 79.8121 65.131C81.2227 65.1088 82.5857 64.6312 83.6919 63.789C84.2458 65.4121 83.9168 67.0514 82.9441 67.4142ZM61.5135 63.1151L62.1913 62.8942L63.6041 63.6126C63.8831 63.7544 64.2234 63.6797 64.4171 63.4339L65.6119 61.919L67.4698 62.4391C67.725 62.5105 67.9982 62.4215 68.1623 62.2134L69.3571 60.6986L71.215 61.2188C71.47 61.2901 71.7433 61.2012 71.9074 60.9931L73.2502 59.2906L74.0055 59.0444C74.27 58.9582 74.4514 58.7146 74.4583 58.4365C74.529 55.5852 76.8725 53.3129 79.7111 53.3129C81.9904 53.3129 83.9967 54.7702 84.7035 56.9392C85.2425 58.5933 84.9209 60.3079 83.9777 61.6287C83.3339 60.859 82.5476 60.406 81.8092 60.1415C82.304 59.4799 82.4815 58.5963 82.2067 57.7529C81.7524 56.3588 80.2649 55.6237 78.8963 56.0696C77.5195 56.5183 76.7645 58.0034 77.2131 59.3801C77.6369 60.6807 78.9734 61.4275 80.2915 61.1269C81.2035 61.235 82.3066 61.5954 83.0735 62.6022C82.122 63.3949 80.9193 63.82 79.7092 63.82C78.0883 63.82 76.5309 63.052 75.5432 61.7656C75.3738 61.5449 75.0837 61.455 74.8191 61.5412L62.2041 65.6519L60.7844 65.2544L61.5135 63.1151ZM79.7096 59.8801C79.1398 59.8801 78.6383 59.5157 78.4615 58.9734C78.2372 58.285 78.6148 57.5424 79.303 57.3182C79.9897 57.0943 80.7317 57.4642 80.9583 58.1597C81.1826 58.8481 80.6018 59.8801 79.7096 59.8801Z" fill="#185FC6"/>
<path d="M86.4794 76.7585C86.4014 75.9125 85.6319 75.2654 84.912 75.0635C84.3278 74.8996 83.9293 75.0487 83.4143 75.0964C83.2888 75.0893 83.2493 75.1044 82.7776 75.2274C76.924 76.7525 74.7288 77.0726 73.9182 77.0726C73.7338 77.0726 73.6702 77.0552 73.6692 77.055C72.5475 76.6929 70.9805 76.3636 70.4565 75.9471C70.849 75.8955 71.368 75.9899 71.7555 76.1081C72.4181 76.3103 73.1617 76.4129 73.9657 76.4128C75.9655 76.4127 77.9042 75.7664 78.79 74.8046C79.2139 74.3442 79.414 73.81 79.3686 73.2594C79.3321 72.8167 79.0912 72.2412 78.1513 72.0142C76.6493 71.6515 73.6845 72.271 71.9556 70.7584C70.1302 69.1614 68.0212 68.3516 65.687 68.3516C64.0403 68.3516 62.6559 68.7627 61.8123 69.091C61.5586 68.3169 60.8297 67.7561 59.9718 67.7561H57.9367C56.8687 67.7561 56 68.6249 56 69.6928V78.2929C56 79.3609 56.8687 80.2296 57.9367 80.2296H59.9718C60.8283 80.2296 61.5562 79.6705 61.8111 78.8984L66.8867 81.1185C68.1125 81.7034 69.6749 82 71.5304 82C77.1729 82 84.0297 79.2623 84.8693 78.8492C86.2946 78.1479 86.5316 77.3251 86.4794 76.7585ZM60.5956 78.2929C60.5956 78.6368 60.3158 78.9166 59.9719 78.9166H57.9367C57.5929 78.9166 57.3131 78.6368 57.3131 78.2929V69.6928C57.3131 69.3489 57.5929 69.0691 57.9367 69.0691H59.9719C60.3158 69.0691 60.5956 69.3489 60.5956 69.6928V78.2929ZM84.2896 77.671C83.486 78.0665 76.9244 80.687 71.5304 80.687C69.8675 80.687 68.4925 80.4321 67.4436 79.9295C67.4222 79.9193 67.8062 80.0878 61.9085 77.5078V70.4728C62.5277 70.1961 63.9438 69.6646 65.6869 69.6646C67.6937 69.6646 69.5119 70.3651 71.0909 71.7466C72.6308 73.0938 74.7684 73.1429 76.3292 73.1786C76.9408 73.1927 77.8581 73.2137 78.06 73.3683C78.0655 73.4355 78.0808 73.6364 77.824 73.9152C77.1919 74.6015 75.5692 75.0997 73.9655 75.0998C73.301 75.0999 72.6692 75.0143 72.1385 74.8523C71.6407 74.7004 71.1404 74.6202 70.6917 74.6202C69.7585 74.6202 69.3524 74.972 69.1761 75.2673C69.055 75.4701 68.8985 75.8971 69.2117 76.4785C69.7621 77.5006 71.5953 77.7653 73.2657 78.3044C73.4372 78.3598 73.6445 78.3855 73.9181 78.3855C75.9283 78.3855 81.4949 76.9098 83.4406 76.4116C83.8734 76.3792 84.1739 76.3015 84.3707 76.3015C84.4354 76.3015 84.4929 76.3095 84.5572 76.3274C84.8178 76.4006 85.1526 76.6694 85.1719 76.8788C85.1865 77.0369 84.9642 77.3391 84.2896 77.671Z" fill="#185FC6"/>
</g>
</g>
<defs>
<filter id="filter0_d_446_19" x="0" y="0" width="142" height="142" filterUnits="userSpaceOnUse" color-interpolation-filters="sRGB">
<feFlood flood-opacity="0" result="BackgroundImageFix"/>
<feColorMatrix in="SourceAlpha" type="matrix" values="0 0 0 0 0 0 0 0 0 0 0 0 0 0 0 0 0 0 127 0" result="hardAlpha"/>
<feOffset dy="4"/>
<feGaussianBlur stdDeviation="22"/>
<feComposite in2="hardAlpha" operator="out"/>
<feColorMatrix type="matrix" values="0 0 0 0 0 0 0 0 0 0 0 0 0 0 0 0 0 0 0.15 0"/>
<feBlend mode="normal" in2="BackgroundImageFix" result="effect1_dropShadow_446_19"/>
<feBlend mode="normal" in="SourceGraphic" in2="effect1_dropShadow_446_19" result="shape"/>
</filter>
</defs>
</svg>
