<svg width="142" height="142" viewBox="0 0 142 142" fill="none" xmlns="http://www.w3.org/2000/svg">
<g id="Group 21369">
<g id="Ellipse 340" filter="url(#filter0_d_446_18)">
<circle cx="71" cy="67" r="27" fill="white"/>
<circle cx="71" cy="67" r="26.5" stroke="#E6E2E2"/>
</g>
<g id="Vector">
<mask id="path-3-outside-1_446_18" maskUnits="userSpaceOnUse" x="58" y="51" width="26" height="32" fill="black">
<rect fill="white" x="58" y="51" width="26" height="32"/>
<path d="M75.3342 72.2867L73.2978 74.6872L72.0669 73.3043C73.062 72.7557 73.8805 72.3043 74.9531 71.7131C75.0201 71.8141 75.3104 72.251 75.3342 72.2867ZM68.8682 69.8821C69.5052 70.2302 70.291 70.5433 71.0213 70.6264C71.2992 70.6582 71.578 70.6591 71.9506 70.5946C72.5999 70.4822 73.2964 70.2009 73.8796 69.8821C73.8796 71.2847 73.8757 71.1338 73.8908 71.2352C73.8936 71.2542 73.8959 71.2732 73.8998 71.292L71.3738 72.6843L68.8479 71.292C68.852 71.2723 68.8545 71.2524 68.8573 71.2325C68.8714 71.1354 68.8682 71.305 68.8682 69.8821ZM78.7585 61.0907C79.0333 61.0907 79.257 61.3143 79.257 61.5895V64.3299C79.257 64.6047 79.0333 64.8284 78.7585 64.8284H77.232C77.2748 64.2479 77.447 61.9085 77.5074 61.0907H78.7585ZM76.7024 60.0749L76.5179 62.5801C75.8333 62.0745 75.42 61.2358 75.5223 60.3201C75.5569 60.0088 75.4346 59.6994 75.1955 59.4922C74.7416 59.0997 74.3701 58.6355 74.0874 58.1111C74.4621 57.2608 74.6253 56.3343 74.5601 55.3906C75.9949 56.4636 76.8418 58.1823 76.7024 60.0749ZM67.4595 56.0457C69.1161 54.2627 71.627 53.916 73.5999 54.82C74.2646 58.1155 71.4821 61.0811 68.1656 60.6423C67.703 60.5812 67.27 60.8591 67.1372 61.3034C66.9834 61.8181 66.6586 62.2681 66.2302 62.5837L66.0452 60.0747C65.9351 58.5769 66.4373 57.1462 67.4595 56.0457ZM63.4909 64.3299V61.5895C63.4909 61.3143 63.7145 61.0907 63.9894 61.0907H65.2405C65.2627 61.3935 65.4499 63.9341 65.5158 64.8284H63.9894C63.7145 64.8284 63.4909 64.6047 63.4909 64.3299ZM65.3936 66.919C65.1537 66.919 64.9587 66.724 64.9587 66.4841V65.7059H65.5872C65.6415 66.1172 65.76 66.5237 65.9383 66.919H65.3936ZM67.5783 67.7963H68.8886C68.8966 68.4026 69.3917 68.8935 69.9998 68.8935H71.6952C72.3081 68.8935 72.8071 68.3948 72.8071 67.7816V66.9336C72.8071 66.3207 72.3083 65.8217 71.6952 65.8217H69.9998C69.3917 65.8217 68.8966 66.3127 68.8886 66.919H66.9223C66.6678 66.48 66.4799 65.9751 66.4384 65.4129L66.3027 63.5679C67.1031 63.1543 67.7186 62.4219 67.9779 61.5544C67.9859 61.527 68.0186 61.508 68.0504 61.5123C70.239 61.8021 72.3786 60.8181 73.5995 58.9983C73.8858 59.4263 74.2268 59.8142 74.6214 60.1557C74.6425 60.1741 74.653 60.1985 74.6503 60.2228C74.496 61.6066 75.2016 62.9282 76.4454 63.567L76.3094 65.4129C76.1925 66.9986 74.8817 68.3238 73.4898 69.0945C72.653 69.5557 71.8581 69.7708 71.3738 69.7708C70.89 69.7708 70.0955 69.5559 69.2592 69.0952C68.6458 68.756 68.0642 68.3206 67.5783 67.7963ZM69.7652 66.9336C69.7652 66.8043 69.8705 66.699 69.9998 66.699H71.6952C71.8245 66.699 71.9298 66.8043 71.9298 66.9336V67.7816C71.9298 67.9112 71.8245 68.0162 71.6952 68.0162H69.9998C69.8705 68.0162 69.7652 67.9112 69.7652 67.7816V66.9336ZM67.4135 72.2867C67.5538 72.0757 67.2988 72.4595 67.7946 71.7131C68.7668 72.2489 69.7314 72.7806 70.6808 73.3041L69.4501 74.687L67.4135 72.2867ZM71.3738 73.8452L72.1827 74.7538L72.0687 75.6488H70.6789L70.5649 74.7541L71.3738 73.8452ZM82.8706 81.1227H79.5749V77.5263C79.5749 77.2839 79.3785 77.0875 79.1361 77.0875C78.894 77.0875 78.6976 77.2839 78.6976 77.5263V81.1227H73.2216L73.0625 79.5471C73.0382 79.3061 72.8236 79.1303 72.5821 79.1548C72.3411 79.179 72.1653 79.3942 72.1898 79.6352L72.3397 81.1227H70.4079L70.8714 76.5258H71.8762L71.9842 77.5981C72.0087 77.8389 72.2237 78.0149 72.4649 77.9904C72.7059 77.9662 72.8815 77.751 72.8572 77.51L72.7379 76.3274C72.8313 76.2303 72.895 76.104 72.913 75.9623L72.9563 75.6231L72.978 75.6474C73.1552 75.8465 73.4679 75.8426 73.6402 75.6396L76.2165 72.6026C76.3431 72.4536 76.3557 72.2389 76.2474 72.0761L76.2195 72.034H79.8399C81.5108 72.034 82.8703 73.3936 82.8703 75.0646V81.1227H82.8706ZM77.5774 60.1393C77.704 58.4208 77.1039 56.7111 75.9311 55.4488C74.7297 54.1556 73.0682 53.463 71.3738 53.463C69.6796 53.463 68.0182 54.1556 66.8168 55.4488C65.6438 56.7111 65.0439 58.4208 65.1704 60.1393L65.1759 60.2134H64.5893C64.4449 58.253 65.1317 56.403 66.3883 55.0505C68.4425 52.8395 71.7242 52.2355 74.4475 53.6132C74.6638 53.7226 74.9277 53.636 75.0371 53.4197C75.1462 53.2037 75.0597 52.9398 74.8437 52.8304C71.6986 51.2394 68.0083 52.0181 65.7456 54.4534C64.2982 56.0114 63.557 58.1208 63.7118 60.2416C63.0858 60.3704 62.6134 60.9257 62.6134 61.5895V64.3301C62.6134 65.0886 63.2307 65.7059 63.9894 65.7059H64.0812V66.4841C64.0812 67.2076 64.6699 67.7963 65.3936 67.7963H66.4462C66.8694 68.3891 67.3997 68.8949 67.9907 69.3252V70.8267C67.6916 70.7086 67.3391 70.8134 67.1571 71.0871L67.1109 71.1567H66.1773C65.9349 71.1567 65.7385 71.3531 65.7385 71.5955C65.7385 71.8376 65.9349 72.034 66.1773 72.034H66.5282L66.5 72.0761C66.392 72.2389 66.4046 72.4538 66.5309 72.6028L69.1074 75.6396C69.2793 75.8424 69.592 75.8472 69.7696 75.6476L69.7913 75.6231L69.8346 75.9621C69.8524 76.104 69.9163 76.2301 70.0097 76.3272L69.5261 81.1227H64.0501V77.5263C64.0501 77.2839 63.8537 77.0875 63.6115 77.0875C63.3691 77.0875 63.1727 77.2839 63.1727 77.5263V81.1227H59.8773V75.0646C59.8773 73.3936 61.2369 72.034 62.9079 72.034H64.1302C64.3725 72.034 64.5689 71.8376 64.5689 71.5955C64.5689 71.3531 64.3725 71.1567 64.1302 71.1567H62.9079C60.753 71.1567 59 72.9097 59 75.0646V81.5612C59 81.8036 59.1964 82 59.4385 82H83.3091C83.5515 82 83.7479 81.8036 83.7479 81.5612V75.0646C83.7479 72.9097 81.9946 71.1567 79.8399 71.1567H75.6367L75.5905 71.0871C75.4088 70.8134 75.0563 70.7088 74.7569 70.8267V69.325C76.2858 68.2122 77.0048 66.8867 77.1604 65.7059H78.7585C79.5172 65.7059 80.1343 65.0886 80.1343 64.3301V61.5895C80.1343 60.9257 79.6621 60.3704 79.0359 60.2416C79.1995 58.002 78.3627 55.7324 76.6804 54.1275C76.5051 53.9601 76.2275 53.9665 76.0602 54.1419C75.8931 54.3172 75.8995 54.5948 76.0748 54.7621C77.4856 56.108 78.3158 58.0759 78.1583 60.2134H77.5719L77.5774 60.1393Z"/>
</mask>
<path d="M75.3342 72.2867L73.2978 74.6872L72.0669 73.3043C73.062 72.7557 73.8805 72.3043 74.9531 71.7131C75.0201 71.8141 75.3104 72.251 75.3342 72.2867ZM68.8682 69.8821C69.5052 70.2302 70.291 70.5433 71.0213 70.6264C71.2992 70.6582 71.578 70.6591 71.9506 70.5946C72.5999 70.4822 73.2964 70.2009 73.8796 69.8821C73.8796 71.2847 73.8757 71.1338 73.8908 71.2352C73.8936 71.2542 73.8959 71.2732 73.8998 71.292L71.3738 72.6843L68.8479 71.292C68.852 71.2723 68.8545 71.2524 68.8573 71.2325C68.8714 71.1354 68.8682 71.305 68.8682 69.8821ZM78.7585 61.0907C79.0333 61.0907 79.257 61.3143 79.257 61.5895V64.3299C79.257 64.6047 79.0333 64.8284 78.7585 64.8284H77.232C77.2748 64.2479 77.447 61.9085 77.5074 61.0907H78.7585ZM76.7024 60.0749L76.5179 62.5801C75.8333 62.0745 75.42 61.2358 75.5223 60.3201C75.5569 60.0088 75.4346 59.6994 75.1955 59.4922C74.7416 59.0997 74.3701 58.6355 74.0874 58.1111C74.4621 57.2608 74.6253 56.3343 74.5601 55.3906C75.9949 56.4636 76.8418 58.1823 76.7024 60.0749ZM67.4595 56.0457C69.1161 54.2627 71.627 53.916 73.5999 54.82C74.2646 58.1155 71.4821 61.0811 68.1656 60.6423C67.703 60.5812 67.27 60.8591 67.1372 61.3034C66.9834 61.8181 66.6586 62.2681 66.2302 62.5837L66.0452 60.0747C65.9351 58.5769 66.4373 57.1462 67.4595 56.0457ZM63.4909 64.3299V61.5895C63.4909 61.3143 63.7145 61.0907 63.9894 61.0907H65.2405C65.2627 61.3935 65.4499 63.9341 65.5158 64.8284H63.9894C63.7145 64.8284 63.4909 64.6047 63.4909 64.3299ZM65.3936 66.919C65.1537 66.919 64.9587 66.724 64.9587 66.4841V65.7059H65.5872C65.6415 66.1172 65.76 66.5237 65.9383 66.919H65.3936ZM67.5783 67.7963H68.8886C68.8966 68.4026 69.3917 68.8935 69.9998 68.8935H71.6952C72.3081 68.8935 72.8071 68.3948 72.8071 67.7816V66.9336C72.8071 66.3207 72.3083 65.8217 71.6952 65.8217H69.9998C69.3917 65.8217 68.8966 66.3127 68.8886 66.919H66.9223C66.6678 66.48 66.4799 65.9751 66.4384 65.4129L66.3027 63.5679C67.1031 63.1543 67.7186 62.4219 67.9779 61.5544C67.9859 61.527 68.0186 61.508 68.0504 61.5123C70.239 61.8021 72.3786 60.8181 73.5995 58.9983C73.8858 59.4263 74.2268 59.8142 74.6214 60.1557C74.6425 60.1741 74.653 60.1985 74.6503 60.2228C74.496 61.6066 75.2016 62.9282 76.4454 63.567L76.3094 65.4129C76.1925 66.9986 74.8817 68.3238 73.4898 69.0945C72.653 69.5557 71.8581 69.7708 71.3738 69.7708C70.89 69.7708 70.0955 69.5559 69.2592 69.0952C68.6458 68.756 68.0642 68.3206 67.5783 67.7963ZM69.7652 66.9336C69.7652 66.8043 69.8705 66.699 69.9998 66.699H71.6952C71.8245 66.699 71.9298 66.8043 71.9298 66.9336V67.7816C71.9298 67.9112 71.8245 68.0162 71.6952 68.0162H69.9998C69.8705 68.0162 69.7652 67.9112 69.7652 67.7816V66.9336ZM67.4135 72.2867C67.5538 72.0757 67.2988 72.4595 67.7946 71.7131C68.7668 72.2489 69.7314 72.7806 70.6808 73.3041L69.4501 74.687L67.4135 72.2867ZM71.3738 73.8452L72.1827 74.7538L72.0687 75.6488H70.6789L70.5649 74.7541L71.3738 73.8452ZM82.8706 81.1227H79.5749V77.5263C79.5749 77.2839 79.3785 77.0875 79.1361 77.0875C78.894 77.0875 78.6976 77.2839 78.6976 77.5263V81.1227H73.2216L73.0625 79.5471C73.0382 79.3061 72.8236 79.1303 72.5821 79.1548C72.3411 79.179 72.1653 79.3942 72.1898 79.6352L72.3397 81.1227H70.4079L70.8714 76.5258H71.8762L71.9842 77.5981C72.0087 77.8389 72.2237 78.0149 72.4649 77.9904C72.7059 77.9662 72.8815 77.751 72.8572 77.51L72.7379 76.3274C72.8313 76.2303 72.895 76.104 72.913 75.9623L72.9563 75.6231L72.978 75.6474C73.1552 75.8465 73.4679 75.8426 73.6402 75.6396L76.2165 72.6026C76.3431 72.4536 76.3557 72.2389 76.2474 72.0761L76.2195 72.034H79.8399C81.5108 72.034 82.8703 73.3936 82.8703 75.0646V81.1227H82.8706ZM77.5774 60.1393C77.704 58.4208 77.1039 56.7111 75.9311 55.4488C74.7297 54.1556 73.0682 53.463 71.3738 53.463C69.6796 53.463 68.0182 54.1556 66.8168 55.4488C65.6438 56.7111 65.0439 58.4208 65.1704 60.1393L65.1759 60.2134H64.5893C64.4449 58.253 65.1317 56.403 66.3883 55.0505C68.4425 52.8395 71.7242 52.2355 74.4475 53.6132C74.6638 53.7226 74.9277 53.636 75.0371 53.4197C75.1462 53.2037 75.0597 52.9398 74.8437 52.8304C71.6986 51.2394 68.0083 52.0181 65.7456 54.4534C64.2982 56.0114 63.557 58.1208 63.7118 60.2416C63.0858 60.3704 62.6134 60.9257 62.6134 61.5895V64.3301C62.6134 65.0886 63.2307 65.7059 63.9894 65.7059H64.0812V66.4841C64.0812 67.2076 64.6699 67.7963 65.3936 67.7963H66.4462C66.8694 68.3891 67.3997 68.8949 67.9907 69.3252V70.8267C67.6916 70.7086 67.3391 70.8134 67.1571 71.0871L67.1109 71.1567H66.1773C65.9349 71.1567 65.7385 71.3531 65.7385 71.5955C65.7385 71.8376 65.9349 72.034 66.1773 72.034H66.5282L66.5 72.0761C66.392 72.2389 66.4046 72.4538 66.5309 72.6028L69.1074 75.6396C69.2793 75.8424 69.592 75.8472 69.7696 75.6476L69.7913 75.6231L69.8346 75.9621C69.8524 76.104 69.9163 76.2301 70.0097 76.3272L69.5261 81.1227H64.0501V77.5263C64.0501 77.2839 63.8537 77.0875 63.6115 77.0875C63.3691 77.0875 63.1727 77.2839 63.1727 77.5263V81.1227H59.8773V75.0646C59.8773 73.3936 61.2369 72.034 62.9079 72.034H64.1302C64.3725 72.034 64.5689 71.8376 64.5689 71.5955C64.5689 71.3531 64.3725 71.1567 64.1302 71.1567H62.9079C60.753 71.1567 59 72.9097 59 75.0646V81.5612C59 81.8036 59.1964 82 59.4385 82H83.3091C83.5515 82 83.7479 81.8036 83.7479 81.5612V75.0646C83.7479 72.9097 81.9946 71.1567 79.8399 71.1567H75.6367L75.5905 71.0871C75.4088 70.8134 75.0563 70.7088 74.7569 70.8267V69.325C76.2858 68.2122 77.0048 66.8867 77.1604 65.7059H78.7585C79.5172 65.7059 80.1343 65.0886 80.1343 64.3301V61.5895C80.1343 60.9257 79.6621 60.3704 79.0359 60.2416C79.1995 58.002 78.3627 55.7324 76.6804 54.1275C76.5051 53.9601 76.2275 53.9665 76.0602 54.1419C75.8931 54.3172 75.8995 54.5948 76.0748 54.7621C77.4856 56.108 78.3158 58.0759 78.1583 60.2134H77.5719L77.5774 60.1393Z" fill="#185FC6"/>
<path d="M75.3342 72.2867L73.2978 74.6872L72.0669 73.3043C73.062 72.7557 73.8805 72.3043 74.9531 71.7131C75.0201 71.8141 75.3104 72.251 75.3342 72.2867ZM68.8682 69.8821C69.5052 70.2302 70.291 70.5433 71.0213 70.6264C71.2992 70.6582 71.578 70.6591 71.9506 70.5946C72.5999 70.4822 73.2964 70.2009 73.8796 69.8821C73.8796 71.2847 73.8757 71.1338 73.8908 71.2352C73.8936 71.2542 73.8959 71.2732 73.8998 71.292L71.3738 72.6843L68.8479 71.292C68.852 71.2723 68.8545 71.2524 68.8573 71.2325C68.8714 71.1354 68.8682 71.305 68.8682 69.8821ZM78.7585 61.0907C79.0333 61.0907 79.257 61.3143 79.257 61.5895V64.3299C79.257 64.6047 79.0333 64.8284 78.7585 64.8284H77.232C77.2748 64.2479 77.447 61.9085 77.5074 61.0907H78.7585ZM76.7024 60.0749L76.5179 62.5801C75.8333 62.0745 75.42 61.2358 75.5223 60.3201C75.5569 60.0088 75.4346 59.6994 75.1955 59.4922C74.7416 59.0997 74.3701 58.6355 74.0874 58.1111C74.4621 57.2608 74.6253 56.3343 74.5601 55.3906C75.9949 56.4636 76.8418 58.1823 76.7024 60.0749ZM67.4595 56.0457C69.1161 54.2627 71.627 53.916 73.5999 54.82C74.2646 58.1155 71.4821 61.0811 68.1656 60.6423C67.703 60.5812 67.27 60.8591 67.1372 61.3034C66.9834 61.8181 66.6586 62.2681 66.2302 62.5837L66.0452 60.0747C65.9351 58.5769 66.4373 57.1462 67.4595 56.0457ZM63.4909 64.3299V61.5895C63.4909 61.3143 63.7145 61.0907 63.9894 61.0907H65.2405C65.2627 61.3935 65.4499 63.9341 65.5158 64.8284H63.9894C63.7145 64.8284 63.4909 64.6047 63.4909 64.3299ZM65.3936 66.919C65.1537 66.919 64.9587 66.724 64.9587 66.4841V65.7059H65.5872C65.6415 66.1172 65.76 66.5237 65.9383 66.919H65.3936ZM67.5783 67.7963H68.8886C68.8966 68.4026 69.3917 68.8935 69.9998 68.8935H71.6952C72.3081 68.8935 72.8071 68.3948 72.8071 67.7816V66.9336C72.8071 66.3207 72.3083 65.8217 71.6952 65.8217H69.9998C69.3917 65.8217 68.8966 66.3127 68.8886 66.919H66.9223C66.6678 66.48 66.4799 65.9751 66.4384 65.4129L66.3027 63.5679C67.1031 63.1543 67.7186 62.4219 67.9779 61.5544C67.9859 61.527 68.0186 61.508 68.0504 61.5123C70.239 61.8021 72.3786 60.8181 73.5995 58.9983C73.8858 59.4263 74.2268 59.8142 74.6214 60.1557C74.6425 60.1741 74.653 60.1985 74.6503 60.2228C74.496 61.6066 75.2016 62.9282 76.4454 63.567L76.3094 65.4129C76.1925 66.9986 74.8817 68.3238 73.4898 69.0945C72.653 69.5557 71.8581 69.7708 71.3738 69.7708C70.89 69.7708 70.0955 69.5559 69.2592 69.0952C68.6458 68.756 68.0642 68.3206 67.5783 67.7963ZM69.7652 66.9336C69.7652 66.8043 69.8705 66.699 69.9998 66.699H71.6952C71.8245 66.699 71.9298 66.8043 71.9298 66.9336V67.7816C71.9298 67.9112 71.8245 68.0162 71.6952 68.0162H69.9998C69.8705 68.0162 69.7652 67.9112 69.7652 67.7816V66.9336ZM67.4135 72.2867C67.5538 72.0757 67.2988 72.4595 67.7946 71.7131C68.7668 72.2489 69.7314 72.7806 70.6808 73.3041L69.4501 74.687L67.4135 72.2867ZM71.3738 73.8452L72.1827 74.7538L72.0687 75.6488H70.6789L70.5649 74.7541L71.3738 73.8452ZM82.8706 81.1227H79.5749V77.5263C79.5749 77.2839 79.3785 77.0875 79.1361 77.0875C78.894 77.0875 78.6976 77.2839 78.6976 77.5263V81.1227H73.2216L73.0625 79.5471C73.0382 79.3061 72.8236 79.1303 72.5821 79.1548C72.3411 79.179 72.1653 79.3942 72.1898 79.6352L72.3397 81.1227H70.4079L70.8714 76.5258H71.8762L71.9842 77.5981C72.0087 77.8389 72.2237 78.0149 72.4649 77.9904C72.7059 77.9662 72.8815 77.751 72.8572 77.51L72.7379 76.3274C72.8313 76.2303 72.895 76.104 72.913 75.9623L72.9563 75.6231L72.978 75.6474C73.1552 75.8465 73.4679 75.8426 73.6402 75.6396L76.2165 72.6026C76.3431 72.4536 76.3557 72.2389 76.2474 72.0761L76.2195 72.034H79.8399C81.5108 72.034 82.8703 73.3936 82.8703 75.0646V81.1227H82.8706ZM77.5774 60.1393C77.704 58.4208 77.1039 56.7111 75.9311 55.4488C74.7297 54.1556 73.0682 53.463 71.3738 53.463C69.6796 53.463 68.0182 54.1556 66.8168 55.4488C65.6438 56.7111 65.0439 58.4208 65.1704 60.1393L65.1759 60.2134H64.5893C64.4449 58.253 65.1317 56.403 66.3883 55.0505C68.4425 52.8395 71.7242 52.2355 74.4475 53.6132C74.6638 53.7226 74.9277 53.636 75.0371 53.4197C75.1462 53.2037 75.0597 52.9398 74.8437 52.8304C71.6986 51.2394 68.0083 52.0181 65.7456 54.4534C64.2982 56.0114 63.557 58.1208 63.7118 60.2416C63.0858 60.3704 62.6134 60.9257 62.6134 61.5895V64.3301C62.6134 65.0886 63.2307 65.7059 63.9894 65.7059H64.0812V66.4841C64.0812 67.2076 64.6699 67.7963 65.3936 67.7963H66.4462C66.8694 68.3891 67.3997 68.8949 67.9907 69.3252V70.8267C67.6916 70.7086 67.3391 70.8134 67.1571 71.0871L67.1109 71.1567H66.1773C65.9349 71.1567 65.7385 71.3531 65.7385 71.5955C65.7385 71.8376 65.9349 72.034 66.1773 72.034H66.5282L66.5 72.0761C66.392 72.2389 66.4046 72.4538 66.5309 72.6028L69.1074 75.6396C69.2793 75.8424 69.592 75.8472 69.7696 75.6476L69.7913 75.6231L69.8346 75.9621C69.8524 76.104 69.9163 76.2301 70.0097 76.3272L69.5261 81.1227H64.0501V77.5263C64.0501 77.2839 63.8537 77.0875 63.6115 77.0875C63.3691 77.0875 63.1727 77.2839 63.1727 77.5263V81.1227H59.8773V75.0646C59.8773 73.3936 61.2369 72.034 62.9079 72.034H64.1302C64.3725 72.034 64.5689 71.8376 64.5689 71.5955C64.5689 71.3531 64.3725 71.1567 64.1302 71.1567H62.9079C60.753 71.1567 59 72.9097 59 75.0646V81.5612C59 81.8036 59.1964 82 59.4385 82H83.3091C83.5515 82 83.7479 81.8036 83.7479 81.5612V75.0646C83.7479 72.9097 81.9946 71.1567 79.8399 71.1567H75.6367L75.5905 71.0871C75.4088 70.8134 75.0563 70.7088 74.7569 70.8267V69.325C76.2858 68.2122 77.0048 66.8867 77.1604 65.7059H78.7585C79.5172 65.7059 80.1343 65.0886 80.1343 64.3301V61.5895C80.1343 60.9257 79.6621 60.3704 79.0359 60.2416C79.1995 58.002 78.3627 55.7324 76.6804 54.1275C76.5051 53.9601 76.2275 53.9665 76.0602 54.1419C75.8931 54.3172 75.8995 54.5948 76.0748 54.7621C77.4856 56.108 78.3158 58.0759 78.1583 60.2134H77.5719L77.5774 60.1393Z" stroke="#185FC6" stroke-width="0.4" mask="url(#path-3-outside-1_446_18)"/>
</g>
</g>
<defs>
<filter id="filter0_d_446_18" x="0" y="0" width="142" height="142" filterUnits="userSpaceOnUse" color-interpolation-filters="sRGB">
<feFlood flood-opacity="0" result="BackgroundImageFix"/>
<feColorMatrix in="SourceAlpha" type="matrix" values="0 0 0 0 0 0 0 0 0 0 0 0 0 0 0 0 0 0 127 0" result="hardAlpha"/>
<feOffset dy="4"/>
<feGaussianBlur stdDeviation="22"/>
<feComposite in2="hardAlpha" operator="out"/>
<feColorMatrix type="matrix" values="0 0 0 0 0 0 0 0 0 0 0 0 0 0 0 0 0 0 0.15 0"/>
<feBlend mode="normal" in2="BackgroundImageFix" result="effect1_dropShadow_446_18"/>
<feBlend mode="normal" in="SourceGraphic" in2="effect1_dropShadow_446_18" result="shape"/>
</filter>
</defs>
</svg>
