<svg width="142" height="142" viewBox="0 0 142 142" fill="none" xmlns="http://www.w3.org/2000/svg">
<g id="Group 21317">
<g id="Ellipse 339" filter="url(#filter0_d_274_1194)">
<circle cx="71" cy="67" r="27" fill="white"/>
<circle cx="71" cy="67" r="26.5" stroke="#E6E2E2"/>
</g>
<g id="Vector">
<path fill-rule="evenodd" clip-rule="evenodd" d="M73.9903 56.9133C73.7992 57.2432 73.6897 57.6262 73.6897 58.0345C73.6897 59.2716 74.6941 60.2758 75.9311 60.2758C77.1682 60.2758 78.1726 59.2716 78.1726 58.0345C78.1726 55.8077 76.3647 54 74.138 54C72.8712 54 71.7398 54.585 70.9999 55.4996C70.26 54.585 69.1287 54 67.8619 54C65.6352 54 63.8273 55.8077 63.8273 58.0345C63.8273 59.2716 64.8317 60.2758 66.0688 60.2758C67.3058 60.2758 68.3102 59.2716 68.3102 58.0345C68.3102 57.6262 68.2007 57.2432 68.0096 56.9133C67.8857 56.6992 67.6112 56.626 67.3971 56.75C67.183 56.8739 67.1098 57.1484 67.2338 57.3626C67.3483 57.5603 67.4136 57.7898 67.4136 58.0345C67.4136 58.7767 66.811 59.3793 66.0688 59.3793C65.3266 59.3793 64.7239 58.7767 64.7239 58.0345C64.7239 56.3026 66.13 54.8965 67.8619 54.8965C69.0429 54.8965 70.0723 55.5505 70.608 56.5156C70.687 56.658 70.8371 56.7463 70.9999 56.7463C71.1628 56.7463 71.3128 56.658 71.3919 56.5156C71.9276 55.5505 72.9569 54.8965 74.138 54.8965C75.8699 54.8965 77.276 56.3026 77.276 58.0345C77.276 58.7767 76.6733 59.3793 75.9311 59.3793C75.1889 59.3793 74.5863 58.7767 74.5863 58.0345C74.5863 57.7898 74.6516 57.5603 74.7661 57.3626C74.8901 57.1484 74.8169 56.8739 74.6028 56.75C74.3887 56.626 74.1142 56.6992 73.9903 56.9133Z" fill="#185FC6"/>
<path fill-rule="evenodd" clip-rule="evenodd" d="M64.4544 57.436C63.9842 57.244 63.4697 57.1379 62.9307 57.1379C60.704 57.1379 58.8962 58.9457 58.8962 61.1724C58.8962 63.3991 60.704 65.2069 62.9307 65.2069C64.1678 65.2069 65.1722 64.2026 65.1722 62.9655C65.1722 61.7284 64.1678 60.7241 62.9307 60.7241C62.5369 60.7241 62.1668 60.826 61.845 61.0046C61.6286 61.1246 61.5505 61.3977 61.6705 61.614C61.7906 61.8304 62.0637 61.9086 62.2801 61.7885C62.4729 61.6815 62.6948 61.6207 62.9307 61.6207C63.673 61.6207 64.2756 62.2232 64.2756 62.9655C64.2756 63.7078 63.673 64.3103 62.9307 64.3103C61.1989 64.3103 59.7927 62.9043 59.7927 61.1724C59.7927 59.4405 61.1989 58.0345 62.9307 58.0345C63.3497 58.0345 63.7498 58.1167 64.1154 58.2661C64.3444 58.3596 64.6835 57.5297 64.4544 57.436Z" fill="#185FC6"/>
<path fill-rule="evenodd" clip-rule="evenodd" d="M77.8845 58.2661C78.2501 58.1167 78.6501 58.0345 79.0691 58.0345C80.801 58.0345 82.2072 59.4405 82.2072 61.1724C82.2072 62.9043 80.801 64.3103 79.0691 64.3103C78.3269 64.3103 77.7243 63.7078 77.7243 62.9655C77.7243 62.2232 78.3269 61.6207 79.0691 61.6207C79.3051 61.6207 79.527 61.6815 79.7198 61.7885C79.9362 61.9086 80.2093 61.8304 80.3294 61.614C80.4494 61.3977 80.3713 61.1246 80.1549 61.0046C79.8331 60.826 79.463 60.7241 79.0691 60.7241C77.8321 60.7241 76.8277 61.7284 76.8277 62.9655C76.8277 64.2026 77.8321 65.2069 79.0691 65.2069C81.2959 65.2069 83.1037 63.3991 83.1037 61.1724C83.1037 58.9457 81.2959 57.1379 79.0691 57.1379C78.5301 57.1379 78.0157 57.244 77.5455 57.436C77.3164 57.5297 77.6555 58.3596 77.8845 58.2661Z" fill="#185FC6"/>
<path fill-rule="evenodd" clip-rule="evenodd" d="M66.0688 77.3103C65.3265 77.3103 64.7239 77.9129 64.7239 78.6552C64.7239 79.3974 65.3265 80 66.0688 80C66.811 80 67.4136 79.3974 67.4136 78.6552C67.4136 77.9129 66.811 77.3103 66.0688 77.3103ZM66.0688 78.2069C66.3162 78.2069 66.5171 78.4078 66.5171 78.6552C66.5171 78.9026 66.3162 79.1034 66.0688 79.1034C65.8214 79.1034 65.6205 78.9026 65.6205 78.6552C65.6205 78.4078 65.8214 78.2069 66.0688 78.2069Z" fill="#185FC6"/>
<path fill-rule="evenodd" clip-rule="evenodd" d="M62.9307 74.1724C62.1885 74.1724 61.5859 74.775 61.5859 75.5172C61.5859 76.2595 62.1885 76.8621 62.9307 76.8621C63.673 76.8621 64.2756 76.2595 64.2756 75.5172C64.2756 74.775 63.673 74.1724 62.9307 74.1724ZM62.9307 75.069C63.1782 75.069 63.379 75.2698 63.379 75.5172C63.379 75.7647 63.1782 75.9655 62.9307 75.9655C62.6833 75.9655 62.4825 75.7647 62.4825 75.5172C62.4825 75.2698 62.6833 75.069 62.9307 75.069Z" fill="#185FC6"/>
<path fill-rule="evenodd" clip-rule="evenodd" d="M60.241 71.0345C59.4988 71.0345 58.8962 71.6371 58.8962 72.3793C58.8962 73.1215 59.4988 73.7241 60.241 73.7241C60.9833 73.7241 61.5859 73.1215 61.5859 72.3793C61.5859 71.6371 60.9833 71.0345 60.241 71.0345ZM60.241 71.931C60.4884 71.931 60.6893 72.1319 60.6893 72.3793C60.6893 72.6267 60.4884 72.8276 60.241 72.8276C59.9936 72.8276 59.7927 72.6267 59.7927 72.3793C59.7927 72.1319 59.9936 71.931 60.241 71.931Z" fill="#185FC6"/>
<path fill-rule="evenodd" clip-rule="evenodd" d="M75.9311 77.3103C75.1889 77.3103 74.5863 77.9129 74.5863 78.6552C74.5863 79.3974 75.1889 80 75.9311 80C76.6734 80 77.276 79.3974 77.276 78.6552C77.276 77.9129 76.6734 77.3103 75.9311 77.3103ZM75.9311 78.2069C76.1785 78.2069 76.3794 78.4078 76.3794 78.6552C76.3794 78.9026 76.1785 79.1034 75.9311 79.1034C75.6837 79.1034 75.4828 78.9026 75.4828 78.6552C75.4828 78.4078 75.6837 78.2069 75.9311 78.2069Z" fill="#185FC6"/>
<path fill-rule="evenodd" clip-rule="evenodd" d="M79.0691 74.1724C78.3269 74.1724 77.7243 74.775 77.7243 75.5172C77.7243 76.2595 78.3269 76.8621 79.0691 76.8621C79.8114 76.8621 80.414 76.2595 80.414 75.5172C80.414 74.775 79.8114 74.1724 79.0691 74.1724ZM79.0691 75.069C79.3166 75.069 79.5174 75.2698 79.5174 75.5172C79.5174 75.7647 79.3166 75.9655 79.0691 75.9655C78.8217 75.9655 78.6208 75.7647 78.6208 75.5172C78.6208 75.2698 78.8217 75.069 79.0691 75.069Z" fill="#185FC6"/>
<path fill-rule="evenodd" clip-rule="evenodd" d="M81.7589 71.0345C81.0166 71.0345 80.414 71.6371 80.414 72.3793C80.414 73.1215 81.0166 73.7241 81.7589 73.7241C82.5011 73.7241 83.1037 73.1215 83.1037 72.3793C83.1037 71.6371 82.5011 71.0345 81.7589 71.0345ZM81.7589 71.931C82.0063 71.931 82.2072 72.1319 82.2072 72.3793C82.2072 72.6267 82.0063 72.8276 81.7589 72.8276C81.5114 72.8276 81.3106 72.6267 81.3106 72.3793C81.3106 72.1319 81.5114 71.931 81.7589 71.931Z" fill="#185FC6"/>
<path fill-rule="evenodd" clip-rule="evenodd" d="M70.9999 77.3103C70.2577 77.3103 69.6551 77.9129 69.6551 78.6552C69.6551 79.3974 70.2577 80 70.9999 80C71.7422 80 72.3448 79.3974 72.3448 78.6552C72.3448 77.9129 71.7422 77.3103 70.9999 77.3103ZM70.9999 78.2069C71.2474 78.2069 71.4482 78.4078 71.4482 78.6552C71.4482 78.9026 71.2474 79.1034 70.9999 79.1034C70.7525 79.1034 70.5517 78.9026 70.5517 78.6552C70.5517 78.4078 70.7525 78.2069 70.9999 78.2069Z" fill="#185FC6"/>
<path fill-rule="evenodd" clip-rule="evenodd" d="M75.0344 64.3103C75.0344 63.568 74.4319 62.9655 73.6897 62.9655H68.3102C67.5681 62.9655 66.9656 63.568 66.9656 64.3103V69.6896C66.9656 70.432 67.5681 71.0345 68.3102 71.0345H73.6897C74.4319 71.0345 75.0344 70.432 75.0344 69.6896V64.3103ZM74.1378 64.3103L74.1382 69.6896C74.1382 69.9371 73.937 70.1379 73.6897 70.1379H68.3102C68.063 70.1379 67.8621 69.9371 67.8621 69.6896V64.3103C67.8621 64.0629 68.063 63.8621 68.3102 63.8621H73.6897C73.937 63.8621 74.1378 64.0629 74.1378 64.3103Z" fill="#185FC6"/>
<path fill-rule="evenodd" clip-rule="evenodd" d="M72.7932 65.6552C72.7932 65.4076 72.5924 65.2069 72.3448 65.2069H69.6551C69.4075 65.2069 69.2068 65.4076 69.2068 65.6552V68.3448C69.2068 68.5924 69.4075 68.793 69.6551 68.793H72.3448C72.5924 68.793 72.7932 68.5924 72.7932 68.3448V65.6552ZM71.8965 66.1034V67.8966H70.1034V66.1034H71.8965Z" fill="#185FC6"/>
<path fill-rule="evenodd" clip-rule="evenodd" d="M59.7996 62.8165C58.7359 63.3189 58 64.4018 58 65.6552C58 67.387 59.4058 68.7932 61.138 68.7932H63.8268C64.0752 68.7932 64.276 68.5923 64.276 68.3448C64.276 68.0974 64.0752 67.8965 63.8268 67.8965H61.138C59.9 67.8965 58.8958 66.8921 58.8958 65.6552C58.8958 64.7598 59.423 63.9862 60.1827 63.6272C60.406 63.5215 60.0229 62.7108 59.7996 62.8165Z" fill="#185FC6"/>
<path fill-rule="evenodd" clip-rule="evenodd" d="M78.1732 68.7932H80.862C82.5942 68.7932 84 67.387 84 65.6552C84 64.4018 83.2641 63.3189 82.2004 62.8165C81.9771 62.7108 81.594 63.5215 81.8173 63.6272C82.577 63.9862 83.1042 64.7598 83.1042 65.6552C83.1042 66.8921 82.1 67.8965 80.862 67.8965H78.1732C77.9248 67.8965 77.724 68.0974 77.724 68.3448C77.724 68.5923 77.9248 68.7932 78.1732 68.7932Z" fill="#185FC6"/>
<path fill-rule="evenodd" clip-rule="evenodd" d="M70.5514 70.5862V72.3793C70.5514 72.6267 70.7522 72.8276 70.9997 72.8276C71.2472 72.8276 71.448 72.6267 71.448 72.3793V70.5862H70.5514Z" fill="#185FC6"/>
<path fill-rule="evenodd" clip-rule="evenodd" d="M70.5514 74.1724V77.7586H71.448V74.1724C71.448 73.9249 71.2472 73.7241 70.9997 73.7241C70.7522 73.7241 70.5514 73.9249 70.5514 74.1724Z" fill="#185FC6"/>
<path fill-rule="evenodd" clip-rule="evenodd" d="M72.7931 74.6207H75.4824V77.7586H76.3799V74.1724C76.3799 73.9248 76.179 73.7241 75.9311 73.7241H72.7931C72.5452 73.7241 72.3444 73.925 72.3444 74.1724C72.3444 74.4198 72.5452 74.6207 72.7931 74.6207Z" fill="#185FC6"/>
<path fill-rule="evenodd" clip-rule="evenodd" d="M78.1726 70.5862H81.3106V71.4828H82.2072V70.1379C82.2072 69.8904 82.0063 69.6896 81.7589 69.6896H78.1726C77.9251 69.6896 77.7243 69.8905 77.7243 70.1379C77.7243 70.3853 77.9251 70.5862 78.1726 70.5862Z" fill="#185FC6"/>
<path fill-rule="evenodd" clip-rule="evenodd" d="M63.8273 69.6896H60.241C59.9936 69.6896 59.7927 69.8904 59.7927 70.1379V71.4828H60.6893V70.5862L63.8273 70.5862C64.0748 70.5862 64.2756 70.3853 64.2756 70.1379C64.2756 69.8905 64.0748 69.6896 63.8273 69.6896Z" fill="#185FC6"/>
<path fill-rule="evenodd" clip-rule="evenodd" d="M75.931 70.3621V72.3793C75.931 72.6269 76.1318 72.8276 76.3797 72.8276H78.6213V74.6207H79.5177V72.3793C79.5177 72.1317 79.3169 71.9311 79.069 71.9311H76.8274V70.3621C76.8274 70.1147 76.6266 69.9138 76.3797 69.9138C76.1318 69.9138 75.931 70.1147 75.931 70.3621Z" fill="#185FC6"/>
<path fill-rule="evenodd" clip-rule="evenodd" d="M65.1725 70.3621V71.9311H62.9309C62.683 71.9311 62.4822 72.1317 62.4822 72.3793V74.6207H63.3786V72.8276H65.6202C65.8681 72.8276 66.0689 72.6269 66.0689 72.3793V70.3621C66.0689 70.1147 65.8681 69.9138 65.6202 69.9138C65.3733 69.9138 65.1725 70.1147 65.1725 70.3621Z" fill="#185FC6"/>
<path fill-rule="evenodd" clip-rule="evenodd" d="M69.2068 73.7241H66.0688C65.8209 73.7241 65.62 73.9248 65.62 74.1724V77.7586H66.5175V74.6207H69.2068C69.4547 74.6207 69.6555 74.4198 69.6555 74.1724C69.6555 73.925 69.4547 73.7241 69.2068 73.7241Z" fill="#185FC6"/>
<path fill-rule="evenodd" clip-rule="evenodd" d="M67.4136 66.5515H65.6205C65.3731 66.5515 65.1722 66.7523 65.1722 66.9998C65.1722 67.2472 65.3731 67.448 65.6205 67.448H67.4136V66.5515Z" fill="#185FC6"/>
<path fill-rule="evenodd" clip-rule="evenodd" d="M70.5514 61.6207V63.4138H71.448V61.6207C71.448 61.3733 71.2472 61.1724 70.9997 61.1724C70.7522 61.1724 70.5514 61.3733 70.5514 61.6207Z" fill="#185FC6"/>
<path fill-rule="evenodd" clip-rule="evenodd" d="M70.5514 56.2414V59.8276C70.5514 60.075 70.7522 60.2759 70.9997 60.2759C71.2472 60.2759 71.448 60.075 71.448 59.8276V56.2414C71.448 55.9939 71.2472 55.7931 70.9997 55.7931C70.7522 55.7931 70.5514 55.9939 70.5514 56.2414Z" fill="#185FC6"/>
<path fill-rule="evenodd" clip-rule="evenodd" d="M76.3794 66.5515H74.5862V67.448H76.3794C76.6268 67.448 76.8277 67.2472 76.8277 66.9998C76.8277 66.7523 76.6268 66.5515 76.3794 66.5515Z" fill="#185FC6"/>
<path fill-rule="evenodd" clip-rule="evenodd" d="M68.7583 70.5862V72.3793C68.7583 72.6267 68.9591 72.8276 69.2066 72.8276C69.454 72.8276 69.6548 72.6267 69.6548 72.3793V70.5862H68.7583Z" fill="#185FC6"/>
<path fill-rule="evenodd" clip-rule="evenodd" d="M67.4136 64.7584H65.6205C65.3731 64.7584 65.1722 64.9592 65.1722 65.2067C65.1722 65.4541 65.3731 65.6549 65.6205 65.6549H67.4136V64.7584Z" fill="#185FC6"/>
<path fill-rule="evenodd" clip-rule="evenodd" d="M68.7583 61.6207V63.4138H69.6548V61.6207C69.6548 61.3733 69.454 61.1724 69.2066 61.1724C68.9591 61.1724 68.7583 61.3733 68.7583 61.6207Z" fill="#185FC6"/>
<path fill-rule="evenodd" clip-rule="evenodd" d="M76.3794 64.7584H74.5862V65.6549H76.3794C76.6268 65.6549 76.8277 65.4541 76.8277 65.2067C76.8277 64.9592 76.6268 64.7584 76.3794 64.7584Z" fill="#185FC6"/>
<path fill-rule="evenodd" clip-rule="evenodd" d="M72.3446 70.5862V72.3793C72.3446 72.6267 72.5454 72.8276 72.7929 72.8276C73.0403 72.8276 73.2412 72.6267 73.2412 72.3793V70.5862H72.3446Z" fill="#185FC6"/>
<path fill-rule="evenodd" clip-rule="evenodd" d="M67.4136 68.3446H65.6205C65.3731 68.3446 65.1722 68.5454 65.1722 68.7929C65.1722 69.0403 65.3731 69.2411 65.6205 69.2411H67.4136V68.3446Z" fill="#185FC6"/>
<path fill-rule="evenodd" clip-rule="evenodd" d="M72.3446 61.6207V63.4138H73.2412V61.6207C73.2412 61.3733 73.0403 61.1724 72.7929 61.1724C72.5454 61.1724 72.3446 61.3733 72.3446 61.6207Z" fill="#185FC6"/>
<path fill-rule="evenodd" clip-rule="evenodd" d="M76.3794 68.3446H74.5862V69.2411H76.3794C76.6268 69.2411 76.8277 69.0403 76.8277 68.7929C76.8277 68.5454 76.6268 68.3446 76.3794 68.3446Z" fill="#185FC6"/>
<path d="M62.9307 79.1036C63.1783 79.1036 63.379 78.9029 63.379 78.6553C63.379 78.4078 63.1783 78.2071 62.9307 78.2071C62.6831 78.2071 62.4824 78.4078 62.4824 78.6553C62.4824 78.9029 62.6831 79.1036 62.9307 79.1036Z" fill="#185FC6"/>
<path d="M79.069 79.1036C79.3166 79.1036 79.5173 78.9029 79.5173 78.6553C79.5173 78.4078 79.3166 78.2071 79.069 78.2071C78.8214 78.2071 78.6207 78.4078 78.6207 78.6553C78.6207 78.9029 78.8214 79.1036 79.069 79.1036Z" fill="#185FC6"/>
<path d="M62.9307 56.2412C63.1783 56.2412 63.379 56.0405 63.379 55.7929C63.379 55.5453 63.1783 55.3446 62.9307 55.3446C62.6831 55.3446 62.4824 55.5453 62.4824 55.7929C62.4824 56.0405 62.6831 56.2412 62.9307 56.2412Z" fill="#185FC6"/>
<path d="M79.069 56.2412C79.3166 56.2412 79.5173 56.0405 79.5173 55.7929C79.5173 55.5453 79.3166 55.3446 79.069 55.3446C78.8214 55.3446 78.6207 55.5453 78.6207 55.7929C78.6207 56.0405 78.8214 56.2412 79.069 56.2412Z" fill="#185FC6"/>
</g>
</g>
<defs>
<filter id="filter0_d_274_1194" x="0" y="0" width="142" height="142" filterUnits="userSpaceOnUse" color-interpolation-filters="sRGB">
<feFlood flood-opacity="0" result="BackgroundImageFix"/>
<feColorMatrix in="SourceAlpha" type="matrix" values="0 0 0 0 0 0 0 0 0 0 0 0 0 0 0 0 0 0 127 0" result="hardAlpha"/>
<feOffset dy="4"/>
<feGaussianBlur stdDeviation="22"/>
<feComposite in2="hardAlpha" operator="out"/>
<feColorMatrix type="matrix" values="0 0 0 0 0 0 0 0 0 0 0 0 0 0 0 0 0 0 0.15 0"/>
<feBlend mode="normal" in2="BackgroundImageFix" result="effect1_dropShadow_274_1194"/>
<feBlend mode="normal" in="SourceGraphic" in2="effect1_dropShadow_274_1194" result="shape"/>
</filter>
</defs>
</svg>
