<svg width="142" height="142" viewBox="0 0 142 142" fill="none" xmlns="http://www.w3.org/2000/svg">
<g id="Group 21318">
<g id="Ellipse 339" filter="url(#filter0_d_274_1197)">
<circle cx="71" cy="67" r="27" fill="white"/>
<circle cx="71" cy="67" r="26.5" stroke="#E6E2E2"/>
</g>
<g id="Vector">
<path d="M64 78H58.5C58.1022 78 57.7206 77.842 57.4393 77.5607C57.158 77.2794 57 76.8978 57 76.5V57C57 56.6022 57.158 56.2206 57.4393 55.9393C57.7206 55.658 58.1022 55.5 58.5 55.5H60.5C60.6326 55.5 60.7598 55.5527 60.8536 55.6464C60.9473 55.7402 61 55.8674 61 56C61 56.1326 60.9473 56.2598 60.8536 56.3536C60.7598 56.4473 60.6326 56.5 60.5 56.5H58.5C58.3674 56.5 58.2402 56.5527 58.1464 56.6464C58.0527 56.7402 58 56.8674 58 57V76.5C58 76.6326 58.0527 76.7598 58.1464 76.8536C58.2402 76.9473 58.3674 77 58.5 77H64C64.1326 77 64.2598 77.0527 64.3536 77.1464C64.4473 77.2402 64.5 77.3674 64.5 77.5C64.5 77.6326 64.4473 77.7598 64.3536 77.8536C64.2598 77.9473 64.1326 78 64 78Z" fill="#185FC6"/>
<path d="M75.5 61.5C75.3674 61.5 75.2402 61.4473 75.1464 61.3536C75.0527 61.2598 75 61.1326 75 61V57C75 56.8674 74.9473 56.7402 74.8536 56.6464C74.7598 56.5527 74.6326 56.5 74.5 56.5H72.5C72.3674 56.5 72.2402 56.4473 72.1464 56.3536C72.0527 56.2598 72 56.1326 72 56C72 55.8674 72.0527 55.7402 72.1464 55.6464C72.2402 55.5527 72.3674 55.5 72.5 55.5H74.5C74.8978 55.5 75.2794 55.658 75.5607 55.9393C75.842 56.2206 76 56.6022 76 57V61C76 61.1326 75.9473 61.2598 75.8536 61.3536C75.7598 61.4473 75.6326 61.5 75.5 61.5Z" fill="#185FC6"/>
<path d="M70 58H63C62.6022 58 62.2206 57.842 61.9393 57.5607C61.658 57.2794 61.5 56.8978 61.5 56.5V55.5C61.5 55.1022 61.658 54.7206 61.9393 54.4393C62.2206 54.158 62.6022 54 63 54H70C70.3978 54 70.7794 54.158 71.0607 54.4393C71.342 54.7206 71.5 55.1022 71.5 55.5V56.5C71.5 56.8978 71.342 57.2794 71.0607 57.5607C70.7794 57.842 70.3978 58 70 58ZM63 55C62.8674 55 62.7402 55.0527 62.6464 55.1464C62.5527 55.2402 62.5 55.3674 62.5 55.5V56.5C62.5 56.6326 62.5527 56.7598 62.6464 56.8536C62.7402 56.9473 62.8674 57 63 57H70C70.1326 57 70.2598 56.9473 70.3536 56.8536C70.4473 56.7598 70.5 56.6326 70.5 56.5V55.5C70.5 55.3674 70.4473 55.2402 70.3536 55.1464C70.2598 55.0527 70.1326 55 70 55H63Z" fill="#185FC6"/>
<path d="M68.5 55H64.5C64.3674 55 64.2402 54.9473 64.1464 54.8536C64.0527 54.7598 64 54.6326 64 54.5V53.5C64 53.1022 64.158 52.7206 64.4393 52.4393C64.7206 52.158 65.1022 52 65.5 52H67.5C67.8978 52 68.2794 52.158 68.5607 52.4393C68.842 52.7206 69 53.1022 69 53.5V54.5C69 54.6326 68.9473 54.7598 68.8536 54.8536C68.7598 54.9473 68.6326 55 68.5 55ZM65 54H68V53.5C68 53.3674 67.9473 53.2402 67.8536 53.1464C67.7598 53.0527 67.6326 53 67.5 53H65.5C65.3674 53 65.2402 53.0527 65.1464 53.1464C65.0527 53.2402 65 53.3674 65 53.5V54Z" fill="#185FC6"/>
<path d="M72.5 76.5C71.6561 76.5004 70.8234 76.3067 70.0664 75.9337C69.3094 75.5608 68.6484 75.0186 68.1345 74.3492C67.6206 73.6798 67.2677 72.9012 67.103 72.0735C66.9382 71.2459 66.9662 70.3914 67.1846 69.5763C67.4031 68.7612 67.8062 68.0072 68.3627 67.3729C68.9192 66.7385 69.6143 66.2407 70.394 65.918C71.1738 65.5953 72.0173 65.4564 72.8594 65.5119C73.7014 65.5675 74.5194 65.8161 75.25 66.2385C75.3588 66.3077 75.4367 66.4162 75.4674 66.5415C75.4981 66.6668 75.4792 66.799 75.4146 66.9107C75.3501 67.0223 75.2449 67.1047 75.1211 67.1407C74.9972 67.1766 74.8643 67.1633 74.75 67.1035C73.8038 66.5556 72.6906 66.3704 71.618 66.5824C70.5454 66.7944 69.5864 67.3892 68.9198 68.2559C68.2531 69.1225 67.9243 70.202 67.9946 71.2931C68.0649 72.3843 68.5295 73.4126 69.3019 74.1866C70.0742 74.9606 71.1016 75.4273 72.1925 75.4999C73.2835 75.5726 74.3637 75.2461 75.2318 74.5813C76.0999 73.9165 76.6966 72.9588 76.9109 71.8866C77.1252 70.8144 76.9424 69.7009 76.3965 68.7535C76.3349 68.639 76.3203 68.5051 76.3558 68.38C76.3913 68.2549 76.4741 68.1486 76.5867 68.0836C76.6992 68.0186 76.8327 68 76.9588 68.0317C77.0848 68.0634 77.1936 68.1429 77.262 68.2535C77.7438 69.0894 77.9972 70.0374 77.9968 71.0022C77.9964 71.9671 77.7422 72.9148 77.2598 73.7504C76.7773 74.5859 76.0835 75.2798 75.248 75.7625C74.4126 76.2451 73.4648 76.4994 72.5 76.5Z" fill="#185FC6"/>
<path d="M72.5 80.5C71.0161 80.5007 69.5527 80.1538 68.227 79.4871C66.9013 78.8204 65.7503 77.8524 64.8661 76.6607C63.9819 75.469 63.3891 74.0867 63.1354 72.6247C62.8816 71.1626 62.9738 69.6615 63.4047 68.2415C63.8356 66.8216 64.5931 65.5223 65.6166 64.4478C66.64 63.3733 67.9009 62.5535 69.2983 62.0541C70.6956 61.5548 72.1905 61.3896 73.6631 61.572C75.1358 61.7544 76.5452 62.2793 77.7785 63.1045C77.8334 63.1409 77.8805 63.1878 77.9172 63.2425C77.9538 63.2972 77.9793 63.3586 77.9922 63.4232C78.0051 63.4878 78.0051 63.5543 77.9922 63.6189C77.9793 63.6834 77.9538 63.7448 77.9171 63.7995C77.8805 63.8542 77.8333 63.9011 77.7785 63.9375C77.7236 63.974 77.6621 63.9992 77.5975 64.0118C77.5328 64.0244 77.4663 64.0241 77.4018 64.0109C77.3373 63.9977 77.276 63.9719 77.2215 63.935C75.4653 62.7603 73.3349 62.2809 71.2448 62.59C69.1546 62.8992 67.2543 63.9749 65.9134 65.6078C64.5725 67.2406 63.887 69.3139 63.9902 71.4243C64.0935 73.5346 64.9781 75.5311 66.4719 77.0253C67.9658 78.5195 69.9621 79.4045 72.0724 79.5082C74.1827 79.6119 76.2562 78.9268 77.8893 77.5863C79.5225 76.2457 80.5986 74.3456 80.9082 72.2555C81.2178 70.1655 80.7389 68.035 79.5645 66.2785C79.4906 66.1683 79.4636 66.0333 79.4893 65.9031C79.515 65.773 79.5913 65.6584 79.7015 65.5845C79.8117 65.5106 79.9467 65.4836 80.0769 65.5093C80.207 65.535 80.3216 65.6113 80.3955 65.7215C81.3525 67.1514 81.9031 68.8145 81.9883 70.533C82.0736 72.2515 81.6903 73.9608 80.8795 75.4785C80.0687 76.9961 78.8609 78.2649 77.385 79.1493C75.9091 80.0338 74.2206 80.5006 72.5 80.5Z" fill="#185FC6"/>
<path d="M72.5 68C72.3674 68 72.2402 67.9473 72.1464 67.8536C72.0527 67.7598 72 67.6326 72 67.5V60.5C72 60.3674 72.0527 60.2402 72.1464 60.1464C72.2402 60.0527 72.3674 60 72.5 60C72.6326 60 72.7598 60.0527 72.8536 60.1464C72.9473 60.2402 73 60.3674 73 60.5V67.5C73 67.6326 72.9473 67.7598 72.8536 67.8536C72.7598 67.9473 72.6326 68 72.5 68Z" fill="#185FC6"/>
<path d="M69 71.5H62C61.8674 71.5 61.7402 71.4473 61.6464 71.3536C61.5527 71.2598 61.5 71.1326 61.5 71C61.5 70.8674 61.5527 70.7402 61.6464 70.6464C61.7402 70.5527 61.8674 70.5 62 70.5H69C69.1326 70.5 69.2598 70.5527 69.3536 70.6464C69.4473 70.7402 69.5 70.8674 69.5 71C69.5 71.1326 69.4473 71.2598 69.3536 71.3536C69.2598 71.4473 69.1326 71.5 69 71.5Z" fill="#185FC6"/>
<path d="M72.5 82C72.3674 82 72.2402 81.9473 72.1464 81.8536C72.0527 81.7598 72 81.6326 72 81.5V74.5C72 74.3674 72.0527 74.2402 72.1464 74.1464C72.2402 74.0527 72.3674 74 72.5 74C72.6326 74 72.7598 74.0527 72.8536 74.1464C72.9473 74.2402 73 74.3674 73 74.5V81.5C73 81.6326 72.9473 81.7598 72.8536 81.8536C72.7598 81.9473 72.6326 82 72.5 82Z" fill="#185FC6"/>
<path d="M83 71.5H76C75.8674 71.5 75.7402 71.4473 75.6464 71.3536C75.5527 71.2598 75.5 71.1326 75.5 71C75.5 70.8674 75.5527 70.7402 75.6464 70.6464C75.7402 70.5527 75.8674 70.5 76 70.5H83C83.1326 70.5 83.2598 70.5527 83.3536 70.6464C83.4473 70.7402 83.5 70.8674 83.5 71C83.5 71.1326 83.4473 71.2598 83.3536 71.3536C83.2598 71.4473 83.1326 71.5 83 71.5Z" fill="#185FC6"/>
<path d="M72.5 71.5C72.4011 71.5 72.3045 71.4706 72.2223 71.4157C72.1401 71.3608 72.076 71.2827 72.0382 71.1913C72.0003 71.1 71.9904 70.9995 72.0097 70.9025C72.029 70.8055 72.0766 70.7164 72.1465 70.6465L78 64.793V62C78 61.8674 78.0527 61.7402 78.1465 61.6465L81.1465 58.6465C81.2164 58.5766 81.3055 58.529 81.4025 58.5097C81.4995 58.4904 81.6 58.5003 81.6913 58.5382C81.7827 58.576 81.8608 58.6401 81.9157 58.7223C81.9706 58.8045 82 58.9011 82 59V61.5H84.5C84.5989 61.5 84.6955 61.5294 84.7777 61.5843C84.8599 61.6392 84.924 61.7173 84.9618 61.8087C84.9997 61.9 85.0096 62.0005 84.9903 62.0975C84.971 62.1945 84.9234 62.2836 84.8535 62.3535L81.8535 65.3535C81.7598 65.4473 81.6326 65.5 81.5 65.5H78.707L72.8535 71.3535C72.7598 71.4473 72.6326 71.5 72.5 71.5ZM79.707 64.5H81.293L83.293 62.5H81.707L79.707 64.5ZM79 62.207V63.793L81 61.793V60.207L79 62.207Z" fill="#185FC6"/>
<path d="M61 61H60C59.8674 61 59.7402 60.9473 59.6464 60.8536C59.5527 60.7598 59.5 60.6326 59.5 60.5C59.5 60.3674 59.5527 60.2402 59.6464 60.1464C59.7402 60.0527 59.8674 60 60 60H61C61.1326 60 61.2598 60.0527 61.3536 60.1464C61.4473 60.2402 61.5 60.3674 61.5 60.5C61.5 60.6326 61.4473 60.7598 61.3536 60.8536C61.2598 60.9473 61.1326 61 61 61Z" fill="#185FC6"/>
<path d="M70.5 61H63C62.8674 61 62.7402 60.9473 62.6464 60.8536C62.5527 60.7598 62.5 60.6326 62.5 60.5C62.5 60.3674 62.5527 60.2402 62.6464 60.1464C62.7402 60.0527 62.8674 60 63 60H70.5C70.6326 60 70.7598 60.0527 70.8536 60.1464C70.9473 60.2402 71 60.3674 71 60.5C71 60.6326 70.9473 60.7598 70.8536 60.8536C70.7598 60.9473 70.6326 61 70.5 61Z" fill="#185FC6"/>
<path d="M61 65.5H60C59.8674 65.5 59.7402 65.4473 59.6464 65.3536C59.5527 65.2598 59.5 65.1326 59.5 65C59.5 64.8674 59.5527 64.7402 59.6464 64.6464C59.7402 64.5527 59.8674 64.5 60 64.5H61C61.1326 64.5 61.2598 64.5527 61.3536 64.6464C61.4473 64.7402 61.5 64.8674 61.5 65C61.5 65.1326 61.4473 65.2598 61.3536 65.3536C61.2598 65.4473 61.1326 65.5 61 65.5Z" fill="#185FC6"/>
<path d="M64 65.5H63C62.8674 65.5 62.7402 65.4473 62.6464 65.3536C62.5527 65.2598 62.5 65.1326 62.5 65C62.5 64.8674 62.5527 64.7402 62.6464 64.6464C62.7402 64.5527 62.8674 64.5 63 64.5H64C64.1326 64.5 64.2598 64.5527 64.3536 64.6464C64.4473 64.7402 64.5 64.8674 64.5 65C64.5 65.1326 64.4473 65.2598 64.3536 65.3536C64.2598 65.4473 64.1326 65.5 64 65.5Z" fill="#185FC6"/>
</g>
</g>
<defs>
<filter id="filter0_d_274_1197" x="0" y="0" width="142" height="142" filterUnits="userSpaceOnUse" color-interpolation-filters="sRGB">
<feFlood flood-opacity="0" result="BackgroundImageFix"/>
<feColorMatrix in="SourceAlpha" type="matrix" values="0 0 0 0 0 0 0 0 0 0 0 0 0 0 0 0 0 0 127 0" result="hardAlpha"/>
<feOffset dy="4"/>
<feGaussianBlur stdDeviation="22"/>
<feComposite in2="hardAlpha" operator="out"/>
<feColorMatrix type="matrix" values="0 0 0 0 0 0 0 0 0 0 0 0 0 0 0 0 0 0 0.15 0"/>
<feBlend mode="normal" in2="BackgroundImageFix" result="effect1_dropShadow_274_1197"/>
<feBlend mode="normal" in="SourceGraphic" in2="effect1_dropShadow_274_1197" result="shape"/>
</filter>
</defs>
</svg>
