<svg width="142" height="142" viewBox="0 0 142 142" fill="none" xmlns="http://www.w3.org/2000/svg">
<g id="Group 21319">
<g id="Ellipse 339" filter="url(#filter0_d_274_1200)">
<circle cx="71" cy="67" r="27" fill="white"/>
<circle cx="71" cy="67" r="26.5" stroke="#E6E2E2"/>
</g>
<g id="Vector">
<mask id="path-3-outside-1_274_1200" maskUnits="userSpaceOnUse" x="55" y="51" width="32" height="32" fill="black">
<rect fill="white" x="55" y="51" width="32" height="32"/>
<path fill-rule="evenodd" clip-rule="evenodd" d="M83.7776 82H57.6637C57.1636 82 56.7566 81.593 56.7566 81.0929L56.7566 78.8711C56.7566 77.3792 57.224 75.9544 58.1088 74.7516C58.9929 73.5487 60.2127 72.6785 61.635 72.2353L63.7879 71.5604L65.6215 70.9877L66.9544 70.574C67.2864 70.3346 67.4829 69.9469 67.4829 69.5285V68.3286C67.4829 68.1363 67.6389 67.9803 67.8312 67.9803C68.0235 67.9803 68.1795 68.1363 68.1795 68.3286V69.5285C68.1795 70.1967 67.8511 70.8147 67.302 71.1812C67.2742 71.1993 67.244 71.2139 67.2119 71.2235L65.8283 71.6529L61.8431 72.8999C59.2167 73.7187 57.4532 76.1183 57.4532 78.8711L57.4532 81.0929C57.4532 81.2066 57.5494 81.3033 57.6637 81.3033H83.7776C83.8913 81.3033 83.988 81.2066 83.988 81.0929L83.988 78.8711C83.988 77.9482 83.7878 77.0532 83.3935 76.2114C83.3119 76.0367 83.3875 75.8298 83.5616 75.7482C83.7358 75.6665 83.9432 75.7416 84.0249 75.9157C84.4627 76.8506 84.6846 77.8448 84.6846 78.8711L84.6847 81.0929C84.6847 81.593 84.2777 82 83.7776 82Z"/>
<path fill-rule="evenodd" clip-rule="evenodd" d="M79.4022 72.8206C79.3677 72.8206 79.3326 72.8152 79.2982 72.8043L77.4513 72.2249L75.6184 71.6529L74.2359 71.2235C74.2039 71.2138 74.1736 71.1993 74.1458 71.1812C73.5961 70.8147 73.2683 70.1967 73.2683 69.5284V68.3286C73.2683 68.1363 73.4243 67.9803 73.6166 67.9803C73.809 67.9803 73.965 68.1363 73.965 68.3286L73.965 69.5284C73.965 69.9469 74.1615 70.3345 74.4935 70.574L75.8258 70.9876L77.6594 71.5603L79.5062 72.1397C79.6901 72.1971 79.7922 72.3925 79.7348 72.5763C79.6876 72.7251 79.5503 72.8206 79.4022 72.8206Z"/>
<path fill-rule="evenodd" clip-rule="evenodd" d="M61.8612 82C61.6689 82 61.5128 81.844 61.5128 81.6517L61.5128 78.3534C61.5128 77.5521 62.1647 76.9008 62.9654 76.9008H63.8992C64.0915 76.9008 64.2475 77.0569 64.2475 77.2492C64.2475 77.4415 64.0914 77.5975 63.8991 77.5975H62.9654C62.5488 77.5975 62.2095 77.9368 62.2095 78.3534V81.6517C62.2095 81.844 62.0534 82 61.8612 82Z"/>
<path fill-rule="evenodd" clip-rule="evenodd" d="M79.5934 82C79.4005 82 79.245 81.844 79.245 81.6517L79.245 78.3534C79.245 77.9368 78.9058 77.5975 78.4891 77.5975H77.5554C77.3631 77.5975 77.207 77.4415 77.207 77.2492C77.2071 77.0569 77.3631 76.9008 77.5554 76.9008H78.4891C79.2898 76.9008 79.9417 77.5521 79.9417 78.3534L79.9417 81.6517C79.9417 81.844 79.7857 82 79.5934 82Z"/>
<path fill-rule="evenodd" clip-rule="evenodd" d="M75.7224 77.5974H65.7254C65.5332 77.5974 65.3771 77.4414 65.3771 77.249C65.3771 77.0567 65.5331 76.9007 65.7254 76.9007H75.7224C75.9147 76.9007 76.0707 77.0567 76.0707 77.249C76.0708 77.4414 75.9147 77.5974 75.7224 77.5974Z"/>
<path fill-rule="evenodd" clip-rule="evenodd" d="M64.805 79.281C64.1096 79.281 63.5435 78.7119 63.5435 78.0122L63.5435 71.8929C63.5435 71.7005 63.6996 71.5445 63.8919 71.5445C64.0842 71.5445 64.2402 71.7005 64.2402 71.8929L64.2402 78.0122C64.2402 78.3273 64.4936 78.5843 64.805 78.5843C65.1207 78.5843 65.3771 78.3273 65.3771 78.0122V71.3202C65.3771 71.1279 65.5331 70.9718 65.7254 70.9718C65.9178 70.9718 66.0738 71.1279 66.0738 71.3202V78.0122C66.0738 78.7119 65.5047 79.281 64.805 79.281Z"/>
<path fill-rule="evenodd" clip-rule="evenodd" d="M76.6423 79.2804C75.9432 79.2804 75.3741 78.7119 75.3741 78.0123L75.3742 71.3202C75.3742 71.1279 75.5301 70.9719 75.7224 70.9719C75.9148 70.9719 76.0708 71.1279 76.0708 71.3202L76.0708 78.0123C76.0708 78.3273 76.3272 78.5837 76.6423 78.5837C76.9537 78.5837 77.2071 78.3273 77.2071 78.0123L77.2071 71.8929C77.2071 71.7006 77.3631 71.5446 77.5554 71.5446C77.7477 71.5446 77.9037 71.7006 77.9037 71.8929L77.9038 78.0123C77.9038 78.7119 77.3377 79.2804 76.6423 79.2804Z"/>
<path fill-rule="evenodd" clip-rule="evenodd" d="M70.7272 69.6966C70.1861 69.6966 69.6448 69.5968 69.1289 69.3961C67.7066 68.8463 66.4977 67.8896 65.6341 66.6294C64.7706 65.3697 64.314 63.8977 64.314 62.3726L64.314 60.5058C64.314 60.3128 64.47 60.1574 64.6623 60.1574C64.8546 60.1574 65.0106 60.3128 65.0106 60.5058L65.0107 62.3726C65.0107 65.1744 66.7668 67.736 69.3811 68.7466C70.2495 69.084 71.205 69.084 72.0728 68.7472C74.6877 67.736 76.4439 65.1744 76.4439 62.3726L76.4439 60.5058C76.4439 60.3128 76.5999 60.1574 76.7922 60.1574C76.9845 60.1574 77.1405 60.3128 77.1405 60.5058L77.1405 62.3726C77.1405 63.8977 76.6839 65.3697 75.8204 66.6294C74.9568 67.8896 73.7479 68.8463 72.325 69.3966C71.8097 69.5968 71.2685 69.6966 70.7272 69.6966Z"/>
<path fill-rule="evenodd" clip-rule="evenodd" d="M77.6715 60.3085C77.4792 60.3085 77.3232 60.1525 77.3232 59.9602V58.0383C77.3232 55.0932 74.9266 52.6967 71.9809 52.6967H69.4664C66.5207 52.6967 64.1247 55.0932 64.1247 58.0383V59.9602C64.1247 60.1525 63.9687 60.3085 63.7763 60.3085C63.5841 60.3085 63.428 60.1525 63.428 59.9602L63.4281 58.0383C63.4281 54.7086 66.1367 52 69.4664 52H71.9809C75.3106 52 78.0198 54.7086 78.0198 58.0383V59.9602C78.0198 60.1525 77.8638 60.3085 77.6715 60.3085Z"/>
<path fill-rule="evenodd" clip-rule="evenodd" d="M64.2058 60.1573H77.241C75.8996 59.6294 73.6318 59.0658 71.127 59.0954L70.3318 59.0954C67.8076 59.064 65.5398 59.63 64.2058 60.1573ZM78.2031 60.854H63.2515C63.0307 60.854 62.8378 60.704 62.7822 60.4894C62.7272 60.2759 62.8185 60.06 63.0102 59.9511C64.08 59.3283 67.0141 58.3601 70.3366 58.3988H71.1228C74.4217 58.3564 77.3649 59.3295 78.4449 59.9517C78.4462 59.9523 78.4468 59.9524 78.448 59.9529C78.6373 60.0648 78.7255 60.2831 78.6675 60.4972C78.6095 60.7107 78.4226 60.854 78.2031 60.854Z"/>
<path fill-rule="evenodd" clip-rule="evenodd" d="M70.7272 73.2088C68.503 73.2088 66.7602 72.1905 66.7602 70.8909C66.7602 70.6986 66.9162 70.5425 67.1085 70.5425C67.3008 70.5425 67.4568 70.6986 67.4568 70.8909C67.4568 71.674 68.7709 72.5122 70.7272 72.5122C72.6836 72.5122 73.9977 71.674 73.9977 70.8909C73.9977 70.6986 74.1537 70.5425 74.346 70.5425C74.5383 70.5425 74.6943 70.6986 74.6943 70.8909C74.6943 72.1904 72.9515 73.2088 70.7272 73.2088Z"/>
<path fill-rule="evenodd" clip-rule="evenodd" d="M56.9568 69.344L57.4744 69.7062C57.5113 69.7316 57.5433 69.7642 57.5675 69.8024L57.7864 70.1404L58.0048 69.8024C58.0295 69.7642 58.0616 69.731 58.0985 69.7056L58.6198 69.344L58.0985 68.9829C58.0616 68.9569 58.0295 68.9243 58.0047 68.8856L57.7864 68.5475L57.5675 68.8856C57.5433 68.9237 57.5113 68.9563 57.4743 68.9823L56.9568 69.344ZM57.7864 71.1303C57.6679 71.1303 57.5578 71.0705 57.4937 70.9713L57.0196 70.2378L56.1488 69.6294C56.0557 69.5647 56 69.4577 56 69.344C56 69.2303 56.0557 69.1238 56.1488 69.0585L57.0196 68.4501L57.4938 67.7172C57.5578 67.618 57.6679 67.5582 57.7864 67.5582C57.9043 67.5582 58.0144 67.618 58.0785 67.7172L58.552 68.4495L59.4295 69.0579C59.5233 69.1232 59.5789 69.2297 59.5789 69.344C59.5789 69.4583 59.5232 69.5653 59.4295 69.6306L58.552 70.2383L58.0785 70.9713C58.0144 71.0705 57.9043 71.1304 57.7864 71.1303Z"/>
<path fill-rule="evenodd" clip-rule="evenodd" d="M60.6051 65.8685L61.1264 66.2295C61.1633 66.2555 61.1953 66.2888 61.2201 66.3269L61.4366 66.6619L61.6495 66.3287C61.6743 66.2894 61.7063 66.2562 61.7444 66.2295L62.2651 65.8685L61.7445 65.5075C61.7064 65.4809 61.6743 65.4476 61.6495 65.4083L61.4366 65.0751L61.2201 65.4101C61.1954 65.4488 61.1633 65.4815 61.1264 65.5075L60.6051 65.8685ZM61.4391 67.6549C61.3206 67.6549 61.2104 67.5951 61.1463 67.4959L60.6729 66.7629L59.7954 66.1552C59.7017 66.0898 59.646 65.9828 59.646 65.8685C59.646 65.7542 59.7016 65.6472 59.7954 65.5825L60.6729 64.9741L61.1464 64.2418C61.2105 64.1426 61.3205 64.0821 61.439 64.0821H61.4396C61.5582 64.0827 61.6688 64.1432 61.7323 64.2436L62.1992 64.9747L63.0749 65.5825C63.1692 65.6472 63.2248 65.7542 63.2248 65.8685C63.2249 65.9828 63.1692 66.0898 63.0749 66.1552L62.1992 66.7623L61.7324 67.4941C61.6689 67.5938 61.5582 67.6543 61.4396 67.6549H61.4391Z"/>
<path fill-rule="evenodd" clip-rule="evenodd" d="M82.7278 69.8627C81.0749 69.8627 79.73 71.2077 79.73 72.8605C79.73 74.5132 81.0749 75.8581 82.7277 75.8581C84.3811 75.8581 85.7254 74.5132 85.7254 72.8605C85.7254 71.2077 84.3811 69.8628 82.7278 69.8627ZM82.7278 76.5548C80.691 76.5548 79.0333 74.8972 79.0333 72.8605C79.0333 70.8231 80.6909 69.1661 82.7277 69.1661C84.7651 69.1661 86.422 70.8231 86.422 72.8605C86.4221 74.8972 84.765 76.5548 82.7278 76.5548Z"/>
<path fill-rule="evenodd" clip-rule="evenodd" d="M82.0534 74.4014C81.9645 74.4014 81.8756 74.3676 81.8078 74.3004L80.772 73.2712C80.6353 73.1357 80.6346 72.915 80.7701 72.7783C80.9056 72.6422 81.1263 72.6416 81.263 72.7771L82.0522 73.5614L84.1918 71.4219C84.3279 71.2858 84.5485 71.2858 84.6846 71.4219C84.8207 71.5579 84.8207 71.7781 84.6846 71.9141L82.2995 74.2992C82.2312 74.3676 82.1423 74.4014 82.0534 74.4014Z"/>
</mask>
<path fill-rule="evenodd" clip-rule="evenodd" d="M83.7776 82H57.6637C57.1636 82 56.7566 81.593 56.7566 81.0929L56.7566 78.8711C56.7566 77.3792 57.224 75.9544 58.1088 74.7516C58.9929 73.5487 60.2127 72.6785 61.635 72.2353L63.7879 71.5604L65.6215 70.9877L66.9544 70.574C67.2864 70.3346 67.4829 69.9469 67.4829 69.5285V68.3286C67.4829 68.1363 67.6389 67.9803 67.8312 67.9803C68.0235 67.9803 68.1795 68.1363 68.1795 68.3286V69.5285C68.1795 70.1967 67.8511 70.8147 67.302 71.1812C67.2742 71.1993 67.244 71.2139 67.2119 71.2235L65.8283 71.6529L61.8431 72.8999C59.2167 73.7187 57.4532 76.1183 57.4532 78.8711L57.4532 81.0929C57.4532 81.2066 57.5494 81.3033 57.6637 81.3033H83.7776C83.8913 81.3033 83.988 81.2066 83.988 81.0929L83.988 78.8711C83.988 77.9482 83.7878 77.0532 83.3935 76.2114C83.3119 76.0367 83.3875 75.8298 83.5616 75.7482C83.7358 75.6665 83.9432 75.7416 84.0249 75.9157C84.4627 76.8506 84.6846 77.8448 84.6846 78.8711L84.6847 81.0929C84.6847 81.593 84.2777 82 83.7776 82Z" fill="#185FC6"/>
<path fill-rule="evenodd" clip-rule="evenodd" d="M79.4022 72.8206C79.3677 72.8206 79.3326 72.8152 79.2982 72.8043L77.4513 72.2249L75.6184 71.6529L74.2359 71.2235C74.2039 71.2138 74.1736 71.1993 74.1458 71.1812C73.5961 70.8147 73.2683 70.1967 73.2683 69.5284V68.3286C73.2683 68.1363 73.4243 67.9803 73.6166 67.9803C73.809 67.9803 73.965 68.1363 73.965 68.3286L73.965 69.5284C73.965 69.9469 74.1615 70.3345 74.4935 70.574L75.8258 70.9876L77.6594 71.5603L79.5062 72.1397C79.6901 72.1971 79.7922 72.3925 79.7348 72.5763C79.6876 72.7251 79.5503 72.8206 79.4022 72.8206Z" fill="#185FC6"/>
<path fill-rule="evenodd" clip-rule="evenodd" d="M61.8612 82C61.6689 82 61.5128 81.844 61.5128 81.6517L61.5128 78.3534C61.5128 77.5521 62.1647 76.9008 62.9654 76.9008H63.8992C64.0915 76.9008 64.2475 77.0569 64.2475 77.2492C64.2475 77.4415 64.0914 77.5975 63.8991 77.5975H62.9654C62.5488 77.5975 62.2095 77.9368 62.2095 78.3534V81.6517C62.2095 81.844 62.0534 82 61.8612 82Z" fill="#185FC6"/>
<path fill-rule="evenodd" clip-rule="evenodd" d="M79.5934 82C79.4005 82 79.245 81.844 79.245 81.6517L79.245 78.3534C79.245 77.9368 78.9058 77.5975 78.4891 77.5975H77.5554C77.3631 77.5975 77.207 77.4415 77.207 77.2492C77.2071 77.0569 77.3631 76.9008 77.5554 76.9008H78.4891C79.2898 76.9008 79.9417 77.5521 79.9417 78.3534L79.9417 81.6517C79.9417 81.844 79.7857 82 79.5934 82Z" fill="#185FC6"/>
<path fill-rule="evenodd" clip-rule="evenodd" d="M75.7224 77.5974H65.7254C65.5332 77.5974 65.3771 77.4414 65.3771 77.249C65.3771 77.0567 65.5331 76.9007 65.7254 76.9007H75.7224C75.9147 76.9007 76.0707 77.0567 76.0707 77.249C76.0708 77.4414 75.9147 77.5974 75.7224 77.5974Z" fill="#185FC6"/>
<path fill-rule="evenodd" clip-rule="evenodd" d="M64.805 79.281C64.1096 79.281 63.5435 78.7119 63.5435 78.0122L63.5435 71.8929C63.5435 71.7005 63.6996 71.5445 63.8919 71.5445C64.0842 71.5445 64.2402 71.7005 64.2402 71.8929L64.2402 78.0122C64.2402 78.3273 64.4936 78.5843 64.805 78.5843C65.1207 78.5843 65.3771 78.3273 65.3771 78.0122V71.3202C65.3771 71.1279 65.5331 70.9718 65.7254 70.9718C65.9178 70.9718 66.0738 71.1279 66.0738 71.3202V78.0122C66.0738 78.7119 65.5047 79.281 64.805 79.281Z" fill="#185FC6"/>
<path fill-rule="evenodd" clip-rule="evenodd" d="M76.6423 79.2804C75.9432 79.2804 75.3741 78.7119 75.3741 78.0123L75.3742 71.3202C75.3742 71.1279 75.5301 70.9719 75.7224 70.9719C75.9148 70.9719 76.0708 71.1279 76.0708 71.3202L76.0708 78.0123C76.0708 78.3273 76.3272 78.5837 76.6423 78.5837C76.9537 78.5837 77.2071 78.3273 77.2071 78.0123L77.2071 71.8929C77.2071 71.7006 77.3631 71.5446 77.5554 71.5446C77.7477 71.5446 77.9037 71.7006 77.9037 71.8929L77.9038 78.0123C77.9038 78.7119 77.3377 79.2804 76.6423 79.2804Z" fill="#185FC6"/>
<path fill-rule="evenodd" clip-rule="evenodd" d="M70.7272 69.6966C70.1861 69.6966 69.6448 69.5968 69.1289 69.3961C67.7066 68.8463 66.4977 67.8896 65.6341 66.6294C64.7706 65.3697 64.314 63.8977 64.314 62.3726L64.314 60.5058C64.314 60.3128 64.47 60.1574 64.6623 60.1574C64.8546 60.1574 65.0106 60.3128 65.0106 60.5058L65.0107 62.3726C65.0107 65.1744 66.7668 67.736 69.3811 68.7466C70.2495 69.084 71.205 69.084 72.0728 68.7472C74.6877 67.736 76.4439 65.1744 76.4439 62.3726L76.4439 60.5058C76.4439 60.3128 76.5999 60.1574 76.7922 60.1574C76.9845 60.1574 77.1405 60.3128 77.1405 60.5058L77.1405 62.3726C77.1405 63.8977 76.6839 65.3697 75.8204 66.6294C74.9568 67.8896 73.7479 68.8463 72.325 69.3966C71.8097 69.5968 71.2685 69.6966 70.7272 69.6966Z" fill="#185FC6"/>
<path fill-rule="evenodd" clip-rule="evenodd" d="M77.6715 60.3085C77.4792 60.3085 77.3232 60.1525 77.3232 59.9602V58.0383C77.3232 55.0932 74.9266 52.6967 71.9809 52.6967H69.4664C66.5207 52.6967 64.1247 55.0932 64.1247 58.0383V59.9602C64.1247 60.1525 63.9687 60.3085 63.7763 60.3085C63.5841 60.3085 63.428 60.1525 63.428 59.9602L63.4281 58.0383C63.4281 54.7086 66.1367 52 69.4664 52H71.9809C75.3106 52 78.0198 54.7086 78.0198 58.0383V59.9602C78.0198 60.1525 77.8638 60.3085 77.6715 60.3085Z" fill="#185FC6"/>
<path fill-rule="evenodd" clip-rule="evenodd" d="M64.2058 60.1573H77.241C75.8996 59.6294 73.6318 59.0658 71.127 59.0954L70.3318 59.0954C67.8076 59.064 65.5398 59.63 64.2058 60.1573ZM78.2031 60.854H63.2515C63.0307 60.854 62.8378 60.704 62.7822 60.4894C62.7272 60.2759 62.8185 60.06 63.0102 59.9511C64.08 59.3283 67.0141 58.3601 70.3366 58.3988H71.1228C74.4217 58.3564 77.3649 59.3295 78.4449 59.9517C78.4462 59.9523 78.4468 59.9524 78.448 59.9529C78.6373 60.0648 78.7255 60.2831 78.6675 60.4972C78.6095 60.7107 78.4226 60.854 78.2031 60.854Z" fill="#185FC6"/>
<path fill-rule="evenodd" clip-rule="evenodd" d="M70.7272 73.2088C68.503 73.2088 66.7602 72.1905 66.7602 70.8909C66.7602 70.6986 66.9162 70.5425 67.1085 70.5425C67.3008 70.5425 67.4568 70.6986 67.4568 70.8909C67.4568 71.674 68.7709 72.5122 70.7272 72.5122C72.6836 72.5122 73.9977 71.674 73.9977 70.8909C73.9977 70.6986 74.1537 70.5425 74.346 70.5425C74.5383 70.5425 74.6943 70.6986 74.6943 70.8909C74.6943 72.1904 72.9515 73.2088 70.7272 73.2088Z" fill="#185FC6"/>
<path fill-rule="evenodd" clip-rule="evenodd" d="M56.9568 69.344L57.4744 69.7062C57.5113 69.7316 57.5433 69.7642 57.5675 69.8024L57.7864 70.1404L58.0048 69.8024C58.0295 69.7642 58.0616 69.731 58.0985 69.7056L58.6198 69.344L58.0985 68.9829C58.0616 68.9569 58.0295 68.9243 58.0047 68.8856L57.7864 68.5475L57.5675 68.8856C57.5433 68.9237 57.5113 68.9563 57.4743 68.9823L56.9568 69.344ZM57.7864 71.1303C57.6679 71.1303 57.5578 71.0705 57.4937 70.9713L57.0196 70.2378L56.1488 69.6294C56.0557 69.5647 56 69.4577 56 69.344C56 69.2303 56.0557 69.1238 56.1488 69.0585L57.0196 68.4501L57.4938 67.7172C57.5578 67.618 57.6679 67.5582 57.7864 67.5582C57.9043 67.5582 58.0144 67.618 58.0785 67.7172L58.552 68.4495L59.4295 69.0579C59.5233 69.1232 59.5789 69.2297 59.5789 69.344C59.5789 69.4583 59.5232 69.5653 59.4295 69.6306L58.552 70.2383L58.0785 70.9713C58.0144 71.0705 57.9043 71.1304 57.7864 71.1303Z" fill="#185FC6"/>
<path fill-rule="evenodd" clip-rule="evenodd" d="M60.6051 65.8685L61.1264 66.2295C61.1633 66.2555 61.1953 66.2888 61.2201 66.3269L61.4366 66.6619L61.6495 66.3287C61.6743 66.2894 61.7063 66.2562 61.7444 66.2295L62.2651 65.8685L61.7445 65.5075C61.7064 65.4809 61.6743 65.4476 61.6495 65.4083L61.4366 65.0751L61.2201 65.4101C61.1954 65.4488 61.1633 65.4815 61.1264 65.5075L60.6051 65.8685ZM61.4391 67.6549C61.3206 67.6549 61.2104 67.5951 61.1463 67.4959L60.6729 66.7629L59.7954 66.1552C59.7017 66.0898 59.646 65.9828 59.646 65.8685C59.646 65.7542 59.7016 65.6472 59.7954 65.5825L60.6729 64.9741L61.1464 64.2418C61.2105 64.1426 61.3205 64.0821 61.439 64.0821H61.4396C61.5582 64.0827 61.6688 64.1432 61.7323 64.2436L62.1992 64.9747L63.0749 65.5825C63.1692 65.6472 63.2248 65.7542 63.2248 65.8685C63.2249 65.9828 63.1692 66.0898 63.0749 66.1552L62.1992 66.7623L61.7324 67.4941C61.6689 67.5938 61.5582 67.6543 61.4396 67.6549H61.4391Z" fill="#185FC6"/>
<path fill-rule="evenodd" clip-rule="evenodd" d="M82.7278 69.8627C81.0749 69.8627 79.73 71.2077 79.73 72.8605C79.73 74.5132 81.0749 75.8581 82.7277 75.8581C84.3811 75.8581 85.7254 74.5132 85.7254 72.8605C85.7254 71.2077 84.3811 69.8628 82.7278 69.8627ZM82.7278 76.5548C80.691 76.5548 79.0333 74.8972 79.0333 72.8605C79.0333 70.8231 80.6909 69.1661 82.7277 69.1661C84.7651 69.1661 86.422 70.8231 86.422 72.8605C86.4221 74.8972 84.765 76.5548 82.7278 76.5548Z" fill="#185FC6"/>
<path fill-rule="evenodd" clip-rule="evenodd" d="M82.0534 74.4014C81.9645 74.4014 81.8756 74.3676 81.8078 74.3004L80.772 73.2712C80.6353 73.1357 80.6346 72.915 80.7701 72.7783C80.9056 72.6422 81.1263 72.6416 81.263 72.7771L82.0522 73.5614L84.1918 71.4219C84.3279 71.2858 84.5485 71.2858 84.6846 71.4219C84.8207 71.5579 84.8207 71.7781 84.6846 71.9141L82.2995 74.2992C82.2312 74.3676 82.1423 74.4014 82.0534 74.4014Z" fill="#185FC6"/>
<path fill-rule="evenodd" clip-rule="evenodd" d="M83.7776 82H57.6637C57.1636 82 56.7566 81.593 56.7566 81.0929L56.7566 78.8711C56.7566 77.3792 57.224 75.9544 58.1088 74.7516C58.9929 73.5487 60.2127 72.6785 61.635 72.2353L63.7879 71.5604L65.6215 70.9877L66.9544 70.574C67.2864 70.3346 67.4829 69.9469 67.4829 69.5285V68.3286C67.4829 68.1363 67.6389 67.9803 67.8312 67.9803C68.0235 67.9803 68.1795 68.1363 68.1795 68.3286V69.5285C68.1795 70.1967 67.8511 70.8147 67.302 71.1812C67.2742 71.1993 67.244 71.2139 67.2119 71.2235L65.8283 71.6529L61.8431 72.8999C59.2167 73.7187 57.4532 76.1183 57.4532 78.8711L57.4532 81.0929C57.4532 81.2066 57.5494 81.3033 57.6637 81.3033H83.7776C83.8913 81.3033 83.988 81.2066 83.988 81.0929L83.988 78.8711C83.988 77.9482 83.7878 77.0532 83.3935 76.2114C83.3119 76.0367 83.3875 75.8298 83.5616 75.7482C83.7358 75.6665 83.9432 75.7416 84.0249 75.9157C84.4627 76.8506 84.6846 77.8448 84.6846 78.8711L84.6847 81.0929C84.6847 81.593 84.2777 82 83.7776 82Z" stroke="#185FC6" stroke-width="0.4" mask="url(#path-3-outside-1_274_1200)"/>
<path fill-rule="evenodd" clip-rule="evenodd" d="M79.4022 72.8206C79.3677 72.8206 79.3326 72.8152 79.2982 72.8043L77.4513 72.2249L75.6184 71.6529L74.2359 71.2235C74.2039 71.2138 74.1736 71.1993 74.1458 71.1812C73.5961 70.8147 73.2683 70.1967 73.2683 69.5284V68.3286C73.2683 68.1363 73.4243 67.9803 73.6166 67.9803C73.809 67.9803 73.965 68.1363 73.965 68.3286L73.965 69.5284C73.965 69.9469 74.1615 70.3345 74.4935 70.574L75.8258 70.9876L77.6594 71.5603L79.5062 72.1397C79.6901 72.1971 79.7922 72.3925 79.7348 72.5763C79.6876 72.7251 79.5503 72.8206 79.4022 72.8206Z" stroke="#185FC6" stroke-width="0.4" mask="url(#path-3-outside-1_274_1200)"/>
<path fill-rule="evenodd" clip-rule="evenodd" d="M61.8612 82C61.6689 82 61.5128 81.844 61.5128 81.6517L61.5128 78.3534C61.5128 77.5521 62.1647 76.9008 62.9654 76.9008H63.8992C64.0915 76.9008 64.2475 77.0569 64.2475 77.2492C64.2475 77.4415 64.0914 77.5975 63.8991 77.5975H62.9654C62.5488 77.5975 62.2095 77.9368 62.2095 78.3534V81.6517C62.2095 81.844 62.0534 82 61.8612 82Z" stroke="#185FC6" stroke-width="0.4" mask="url(#path-3-outside-1_274_1200)"/>
<path fill-rule="evenodd" clip-rule="evenodd" d="M79.5934 82C79.4005 82 79.245 81.844 79.245 81.6517L79.245 78.3534C79.245 77.9368 78.9058 77.5975 78.4891 77.5975H77.5554C77.3631 77.5975 77.207 77.4415 77.207 77.2492C77.2071 77.0569 77.3631 76.9008 77.5554 76.9008H78.4891C79.2898 76.9008 79.9417 77.5521 79.9417 78.3534L79.9417 81.6517C79.9417 81.844 79.7857 82 79.5934 82Z" stroke="#185FC6" stroke-width="0.4" mask="url(#path-3-outside-1_274_1200)"/>
<path fill-rule="evenodd" clip-rule="evenodd" d="M75.7224 77.5974H65.7254C65.5332 77.5974 65.3771 77.4414 65.3771 77.249C65.3771 77.0567 65.5331 76.9007 65.7254 76.9007H75.7224C75.9147 76.9007 76.0707 77.0567 76.0707 77.249C76.0708 77.4414 75.9147 77.5974 75.7224 77.5974Z" stroke="#185FC6" stroke-width="0.4" mask="url(#path-3-outside-1_274_1200)"/>
<path fill-rule="evenodd" clip-rule="evenodd" d="M64.805 79.281C64.1096 79.281 63.5435 78.7119 63.5435 78.0122L63.5435 71.8929C63.5435 71.7005 63.6996 71.5445 63.8919 71.5445C64.0842 71.5445 64.2402 71.7005 64.2402 71.8929L64.2402 78.0122C64.2402 78.3273 64.4936 78.5843 64.805 78.5843C65.1207 78.5843 65.3771 78.3273 65.3771 78.0122V71.3202C65.3771 71.1279 65.5331 70.9718 65.7254 70.9718C65.9178 70.9718 66.0738 71.1279 66.0738 71.3202V78.0122C66.0738 78.7119 65.5047 79.281 64.805 79.281Z" stroke="#185FC6" stroke-width="0.4" mask="url(#path-3-outside-1_274_1200)"/>
<path fill-rule="evenodd" clip-rule="evenodd" d="M76.6423 79.2804C75.9432 79.2804 75.3741 78.7119 75.3741 78.0123L75.3742 71.3202C75.3742 71.1279 75.5301 70.9719 75.7224 70.9719C75.9148 70.9719 76.0708 71.1279 76.0708 71.3202L76.0708 78.0123C76.0708 78.3273 76.3272 78.5837 76.6423 78.5837C76.9537 78.5837 77.2071 78.3273 77.2071 78.0123L77.2071 71.8929C77.2071 71.7006 77.3631 71.5446 77.5554 71.5446C77.7477 71.5446 77.9037 71.7006 77.9037 71.8929L77.9038 78.0123C77.9038 78.7119 77.3377 79.2804 76.6423 79.2804Z" stroke="#185FC6" stroke-width="0.4" mask="url(#path-3-outside-1_274_1200)"/>
<path fill-rule="evenodd" clip-rule="evenodd" d="M70.7272 69.6966C70.1861 69.6966 69.6448 69.5968 69.1289 69.3961C67.7066 68.8463 66.4977 67.8896 65.6341 66.6294C64.7706 65.3697 64.314 63.8977 64.314 62.3726L64.314 60.5058C64.314 60.3128 64.47 60.1574 64.6623 60.1574C64.8546 60.1574 65.0106 60.3128 65.0106 60.5058L65.0107 62.3726C65.0107 65.1744 66.7668 67.736 69.3811 68.7466C70.2495 69.084 71.205 69.084 72.0728 68.7472C74.6877 67.736 76.4439 65.1744 76.4439 62.3726L76.4439 60.5058C76.4439 60.3128 76.5999 60.1574 76.7922 60.1574C76.9845 60.1574 77.1405 60.3128 77.1405 60.5058L77.1405 62.3726C77.1405 63.8977 76.6839 65.3697 75.8204 66.6294C74.9568 67.8896 73.7479 68.8463 72.325 69.3966C71.8097 69.5968 71.2685 69.6966 70.7272 69.6966Z" stroke="#185FC6" stroke-width="0.4" mask="url(#path-3-outside-1_274_1200)"/>
<path fill-rule="evenodd" clip-rule="evenodd" d="M77.6715 60.3085C77.4792 60.3085 77.3232 60.1525 77.3232 59.9602V58.0383C77.3232 55.0932 74.9266 52.6967 71.9809 52.6967H69.4664C66.5207 52.6967 64.1247 55.0932 64.1247 58.0383V59.9602C64.1247 60.1525 63.9687 60.3085 63.7763 60.3085C63.5841 60.3085 63.428 60.1525 63.428 59.9602L63.4281 58.0383C63.4281 54.7086 66.1367 52 69.4664 52H71.9809C75.3106 52 78.0198 54.7086 78.0198 58.0383V59.9602C78.0198 60.1525 77.8638 60.3085 77.6715 60.3085Z" stroke="#185FC6" stroke-width="0.4" mask="url(#path-3-outside-1_274_1200)"/>
<path fill-rule="evenodd" clip-rule="evenodd" d="M64.2058 60.1573H77.241C75.8996 59.6294 73.6318 59.0658 71.127 59.0954L70.3318 59.0954C67.8076 59.064 65.5398 59.63 64.2058 60.1573ZM78.2031 60.854H63.2515C63.0307 60.854 62.8378 60.704 62.7822 60.4894C62.7272 60.2759 62.8185 60.06 63.0102 59.9511C64.08 59.3283 67.0141 58.3601 70.3366 58.3988H71.1228C74.4217 58.3564 77.3649 59.3295 78.4449 59.9517C78.4462 59.9523 78.4468 59.9524 78.448 59.9529C78.6373 60.0648 78.7255 60.2831 78.6675 60.4972C78.6095 60.7107 78.4226 60.854 78.2031 60.854Z" stroke="#185FC6" stroke-width="0.4" mask="url(#path-3-outside-1_274_1200)"/>
<path fill-rule="evenodd" clip-rule="evenodd" d="M70.7272 73.2088C68.503 73.2088 66.7602 72.1905 66.7602 70.8909C66.7602 70.6986 66.9162 70.5425 67.1085 70.5425C67.3008 70.5425 67.4568 70.6986 67.4568 70.8909C67.4568 71.674 68.7709 72.5122 70.7272 72.5122C72.6836 72.5122 73.9977 71.674 73.9977 70.8909C73.9977 70.6986 74.1537 70.5425 74.346 70.5425C74.5383 70.5425 74.6943 70.6986 74.6943 70.8909C74.6943 72.1904 72.9515 73.2088 70.7272 73.2088Z" stroke="#185FC6" stroke-width="0.4" mask="url(#path-3-outside-1_274_1200)"/>
<path fill-rule="evenodd" clip-rule="evenodd" d="M56.9568 69.344L57.4744 69.7062C57.5113 69.7316 57.5433 69.7642 57.5675 69.8024L57.7864 70.1404L58.0048 69.8024C58.0295 69.7642 58.0616 69.731 58.0985 69.7056L58.6198 69.344L58.0985 68.9829C58.0616 68.9569 58.0295 68.9243 58.0047 68.8856L57.7864 68.5475L57.5675 68.8856C57.5433 68.9237 57.5113 68.9563 57.4743 68.9823L56.9568 69.344ZM57.7864 71.1303C57.6679 71.1303 57.5578 71.0705 57.4937 70.9713L57.0196 70.2378L56.1488 69.6294C56.0557 69.5647 56 69.4577 56 69.344C56 69.2303 56.0557 69.1238 56.1488 69.0585L57.0196 68.4501L57.4938 67.7172C57.5578 67.618 57.6679 67.5582 57.7864 67.5582C57.9043 67.5582 58.0144 67.618 58.0785 67.7172L58.552 68.4495L59.4295 69.0579C59.5233 69.1232 59.5789 69.2297 59.5789 69.344C59.5789 69.4583 59.5232 69.5653 59.4295 69.6306L58.552 70.2383L58.0785 70.9713C58.0144 71.0705 57.9043 71.1304 57.7864 71.1303Z" stroke="#185FC6" stroke-width="0.4" mask="url(#path-3-outside-1_274_1200)"/>
<path fill-rule="evenodd" clip-rule="evenodd" d="M60.6051 65.8685L61.1264 66.2295C61.1633 66.2555 61.1953 66.2888 61.2201 66.3269L61.4366 66.6619L61.6495 66.3287C61.6743 66.2894 61.7063 66.2562 61.7444 66.2295L62.2651 65.8685L61.7445 65.5075C61.7064 65.4809 61.6743 65.4476 61.6495 65.4083L61.4366 65.0751L61.2201 65.4101C61.1954 65.4488 61.1633 65.4815 61.1264 65.5075L60.6051 65.8685ZM61.4391 67.6549C61.3206 67.6549 61.2104 67.5951 61.1463 67.4959L60.6729 66.7629L59.7954 66.1552C59.7017 66.0898 59.646 65.9828 59.646 65.8685C59.646 65.7542 59.7016 65.6472 59.7954 65.5825L60.6729 64.9741L61.1464 64.2418C61.2105 64.1426 61.3205 64.0821 61.439 64.0821H61.4396C61.5582 64.0827 61.6688 64.1432 61.7323 64.2436L62.1992 64.9747L63.0749 65.5825C63.1692 65.6472 63.2248 65.7542 63.2248 65.8685C63.2249 65.9828 63.1692 66.0898 63.0749 66.1552L62.1992 66.7623L61.7324 67.4941C61.6689 67.5938 61.5582 67.6543 61.4396 67.6549H61.4391Z" stroke="#185FC6" stroke-width="0.4" mask="url(#path-3-outside-1_274_1200)"/>
<path fill-rule="evenodd" clip-rule="evenodd" d="M82.7278 69.8627C81.0749 69.8627 79.73 71.2077 79.73 72.8605C79.73 74.5132 81.0749 75.8581 82.7277 75.8581C84.3811 75.8581 85.7254 74.5132 85.7254 72.8605C85.7254 71.2077 84.3811 69.8628 82.7278 69.8627ZM82.7278 76.5548C80.691 76.5548 79.0333 74.8972 79.0333 72.8605C79.0333 70.8231 80.6909 69.1661 82.7277 69.1661C84.7651 69.1661 86.422 70.8231 86.422 72.8605C86.4221 74.8972 84.765 76.5548 82.7278 76.5548Z" stroke="#185FC6" stroke-width="0.4" mask="url(#path-3-outside-1_274_1200)"/>
<path fill-rule="evenodd" clip-rule="evenodd" d="M82.0534 74.4014C81.9645 74.4014 81.8756 74.3676 81.8078 74.3004L80.772 73.2712C80.6353 73.1357 80.6346 72.915 80.7701 72.7783C80.9056 72.6422 81.1263 72.6416 81.263 72.7771L82.0522 73.5614L84.1918 71.4219C84.3279 71.2858 84.5485 71.2858 84.6846 71.4219C84.8207 71.5579 84.8207 71.7781 84.6846 71.9141L82.2995 74.2992C82.2312 74.3676 82.1423 74.4014 82.0534 74.4014Z" stroke="#185FC6" stroke-width="0.4" mask="url(#path-3-outside-1_274_1200)"/>
</g>
</g>
<defs>
<filter id="filter0_d_274_1200" x="0" y="0" width="142" height="142" filterUnits="userSpaceOnUse" color-interpolation-filters="sRGB">
<feFlood flood-opacity="0" result="BackgroundImageFix"/>
<feColorMatrix in="SourceAlpha" type="matrix" values="0 0 0 0 0 0 0 0 0 0 0 0 0 0 0 0 0 0 127 0" result="hardAlpha"/>
<feOffset dy="4"/>
<feGaussianBlur stdDeviation="22"/>
<feComposite in2="hardAlpha" operator="out"/>
<feColorMatrix type="matrix" values="0 0 0 0 0 0 0 0 0 0 0 0 0 0 0 0 0 0 0.15 0"/>
<feBlend mode="normal" in2="BackgroundImageFix" result="effect1_dropShadow_274_1200"/>
<feBlend mode="normal" in="SourceGraphic" in2="effect1_dropShadow_274_1200" result="shape"/>
</filter>
</defs>
</svg>
