<svg width="142" height="142" viewBox="0 0 142 142" fill="none" xmlns="http://www.w3.org/2000/svg">
<g id="Group 21320">
<g id="Ellipse 339" filter="url(#filter0_d_274_1203)">
<circle cx="71" cy="67" r="27" fill="white"/>
<circle cx="71" cy="67" r="26.5" stroke="#E6E2E2"/>
</g>
<g id="Vector">
<mask id="path-3-outside-1_274_1203" maskUnits="userSpaceOnUse" x="57" y="51" width="28" height="32" fill="black">
<rect fill="white" x="57" y="51" width="28" height="32"/>
<path d="M83.7502 62.1537L82.6249 61.504V56.2065L82.9849 56.1109C83.1969 56.0546 83.3445 55.8627 83.3445 55.6432C83.3445 55.4238 83.1969 55.2319 82.9849 55.1756L71.0911 52.0162C71.0097 51.9946 70.924 51.9946 70.8427 52.0162L58.9489 55.1756C58.7369 55.2319 58.5893 55.4238 58.5893 55.6432C58.5893 55.8627 58.7369 56.0546 58.9489 56.1109L62.3502 57.0144V63.1393C62.3502 63.373 62.5172 63.5733 62.7471 63.6153C64.132 63.8686 65.2739 64.0893 66.1915 64.2667C68.5569 64.7239 69.7619 64.9526 70.9669 64.9526C72.1719 64.9526 73.3769 64.7239 75.7423 64.2667C76.6598 64.0893 77.8018 63.8685 79.1867 63.6153C79.4166 63.5733 79.5836 63.373 79.5836 63.1393V57.0143L81.6571 56.4635V61.504L80.5319 62.1537C80.3821 62.2401 80.29 62.3998 80.29 62.5727V66.7426C80.29 66.926 80.3936 67.0936 80.5577 67.1755C80.7217 67.2574 80.9181 67.2395 81.0646 67.1293L82.1411 66.3199L83.2174 67.1293C83.3029 67.1935 83.4052 67.2264 83.5083 67.2264C83.582 67.2264 83.6559 67.2096 83.7243 67.1755C83.8884 67.0936 83.9921 66.926 83.9921 66.7426V62.5727C83.9921 62.3999 83.8999 62.2402 83.7502 62.1537ZM78.6158 62.7362C77.4033 62.9598 76.3893 63.1559 75.5586 63.3165C70.9668 64.2041 70.9668 64.2041 66.3752 63.3165C65.5445 63.1559 64.5305 62.9598 63.318 62.7362V57.2715L70.8426 59.2703C70.8833 59.2811 70.925 59.2865 70.9668 59.2865C71.0086 59.2865 71.0504 59.2811 71.0911 59.2703L78.6158 57.2715V62.7362ZM70.9669 58.3019L60.9579 55.6432L70.9668 52.9845L80.9759 55.6432L70.9669 58.3019ZM83.0244 65.7734L82.4319 65.3279C82.2597 65.1984 82.0225 65.1984 81.8503 65.3279L81.2578 65.7734V62.8521L82.1411 62.3421L83.0244 62.8521V65.7734ZM70.9669 73.3289C73.3356 73.3289 75.2628 71.4018 75.2628 69.0331C75.2628 68.7659 75.0461 68.5492 74.7789 68.5492H67.1549C66.8877 68.5492 66.671 68.7659 66.671 69.0331C66.671 71.4018 68.5981 73.3289 70.9669 73.3289ZM74.2599 69.517C74.0249 71.1235 72.6377 72.3612 70.9669 72.3612C69.2961 72.3612 67.9089 71.1235 67.6739 69.517H74.2599ZM83.45 68.5492H76.8594C76.5921 68.5492 76.3755 68.7659 76.3755 69.0331C76.3755 72.0154 73.9492 74.4417 70.9668 74.4417C67.9845 74.4417 65.5582 72.0154 65.5582 69.0331C65.5582 68.7659 65.3416 68.5492 65.0744 68.5492H58.4839C58.2167 68.5492 58 68.7659 58 69.0331V70.7225C58 70.9227 58.1233 71.1021 58.31 71.174L60.1435 71.8798C60.4007 72.8596 60.7892 73.7967 61.3012 74.6723L60.5032 76.469C60.422 76.652 60.4618 76.8661 60.6033 77.0076L62.9925 79.3967C63.134 79.5382 63.348 79.578 63.531 79.4968L65.3284 78.6985C66.2042 79.2105 67.1411 79.599 68.12 79.8559L68.826 81.69C68.8978 81.8768 69.0773 82 69.2775 82H72.6563C72.8565 82 73.036 81.8767 73.1079 81.69L73.8137 79.8564C74.7931 79.5994 75.7303 79.2108 76.6061 78.6987L78.4029 79.4968C78.5859 79.5781 78.7998 79.5382 78.9414 79.3967L81.3306 77.0075C81.4721 76.866 81.5118 76.652 81.4306 76.469L80.6323 74.6716C81.1443 73.7958 81.5328 72.8589 81.7898 71.88L83.6238 71.174C83.8106 71.1022 83.9339 70.9227 83.9339 70.7225V69.0331C83.9339 68.7658 83.7172 68.5492 83.45 68.5492ZM82.9661 70.3902L81.2076 71.0671C81.0587 71.1244 80.9476 71.2514 80.9107 71.4067C80.6602 72.4588 80.2448 73.4608 79.676 74.3845C79.5924 74.5204 79.5811 74.6888 79.6459 74.8347L80.4113 76.5582L78.4921 78.4775L76.7692 77.7124C76.6235 77.6476 76.455 77.6588 76.3191 77.7426C75.3954 78.3114 74.3933 78.7269 73.3405 78.9774C73.1853 79.0143 73.0582 79.1254 73.0009 79.2743L72.3241 81.0323H69.6098L68.9329 79.2737C68.8756 79.1248 68.7485 79.0137 68.5934 78.9768C67.5412 78.7264 66.5393 78.311 65.6155 77.7422C65.4797 77.6585 65.3112 77.6473 65.1655 77.7119L63.4419 78.4774L61.5226 76.5581L62.2878 74.8353C62.3525 74.6894 62.3413 74.521 62.2576 74.3851C61.6889 73.4617 61.2734 72.4596 61.0227 71.4065C60.9858 71.2513 60.8748 71.1242 60.7259 71.0669L58.9679 70.3902V69.517H64.6089C64.8568 72.8079 67.6138 75.4094 70.967 75.4094C74.3203 75.4094 77.0773 72.8078 77.3252 69.517H82.9663V70.3902H82.9661Z"/>
</mask>
<path d="M83.7502 62.1537L82.6249 61.504V56.2065L82.9849 56.1109C83.1969 56.0546 83.3445 55.8627 83.3445 55.6432C83.3445 55.4238 83.1969 55.2319 82.9849 55.1756L71.0911 52.0162C71.0097 51.9946 70.924 51.9946 70.8427 52.0162L58.9489 55.1756C58.7369 55.2319 58.5893 55.4238 58.5893 55.6432C58.5893 55.8627 58.7369 56.0546 58.9489 56.1109L62.3502 57.0144V63.1393C62.3502 63.373 62.5172 63.5733 62.7471 63.6153C64.132 63.8686 65.2739 64.0893 66.1915 64.2667C68.5569 64.7239 69.7619 64.9526 70.9669 64.9526C72.1719 64.9526 73.3769 64.7239 75.7423 64.2667C76.6598 64.0893 77.8018 63.8685 79.1867 63.6153C79.4166 63.5733 79.5836 63.373 79.5836 63.1393V57.0143L81.6571 56.4635V61.504L80.5319 62.1537C80.3821 62.2401 80.29 62.3998 80.29 62.5727V66.7426C80.29 66.926 80.3936 67.0936 80.5577 67.1755C80.7217 67.2574 80.9181 67.2395 81.0646 67.1293L82.1411 66.3199L83.2174 67.1293C83.3029 67.1935 83.4052 67.2264 83.5083 67.2264C83.582 67.2264 83.6559 67.2096 83.7243 67.1755C83.8884 67.0936 83.9921 66.926 83.9921 66.7426V62.5727C83.9921 62.3999 83.8999 62.2402 83.7502 62.1537ZM78.6158 62.7362C77.4033 62.9598 76.3893 63.1559 75.5586 63.3165C70.9668 64.2041 70.9668 64.2041 66.3752 63.3165C65.5445 63.1559 64.5305 62.9598 63.318 62.7362V57.2715L70.8426 59.2703C70.8833 59.2811 70.925 59.2865 70.9668 59.2865C71.0086 59.2865 71.0504 59.2811 71.0911 59.2703L78.6158 57.2715V62.7362ZM70.9669 58.3019L60.9579 55.6432L70.9668 52.9845L80.9759 55.6432L70.9669 58.3019ZM83.0244 65.7734L82.4319 65.3279C82.2597 65.1984 82.0225 65.1984 81.8503 65.3279L81.2578 65.7734V62.8521L82.1411 62.3421L83.0244 62.8521V65.7734ZM70.9669 73.3289C73.3356 73.3289 75.2628 71.4018 75.2628 69.0331C75.2628 68.7659 75.0461 68.5492 74.7789 68.5492H67.1549C66.8877 68.5492 66.671 68.7659 66.671 69.0331C66.671 71.4018 68.5981 73.3289 70.9669 73.3289ZM74.2599 69.517C74.0249 71.1235 72.6377 72.3612 70.9669 72.3612C69.2961 72.3612 67.9089 71.1235 67.6739 69.517H74.2599ZM83.45 68.5492H76.8594C76.5921 68.5492 76.3755 68.7659 76.3755 69.0331C76.3755 72.0154 73.9492 74.4417 70.9668 74.4417C67.9845 74.4417 65.5582 72.0154 65.5582 69.0331C65.5582 68.7659 65.3416 68.5492 65.0744 68.5492H58.4839C58.2167 68.5492 58 68.7659 58 69.0331V70.7225C58 70.9227 58.1233 71.1021 58.31 71.174L60.1435 71.8798C60.4007 72.8596 60.7892 73.7967 61.3012 74.6723L60.5032 76.469C60.422 76.652 60.4618 76.8661 60.6033 77.0076L62.9925 79.3967C63.134 79.5382 63.348 79.578 63.531 79.4968L65.3284 78.6985C66.2042 79.2105 67.1411 79.599 68.12 79.8559L68.826 81.69C68.8978 81.8768 69.0773 82 69.2775 82H72.6563C72.8565 82 73.036 81.8767 73.1079 81.69L73.8137 79.8564C74.7931 79.5994 75.7303 79.2108 76.6061 78.6987L78.4029 79.4968C78.5859 79.5781 78.7998 79.5382 78.9414 79.3967L81.3306 77.0075C81.4721 76.866 81.5118 76.652 81.4306 76.469L80.6323 74.6716C81.1443 73.7958 81.5328 72.8589 81.7898 71.88L83.6238 71.174C83.8106 71.1022 83.9339 70.9227 83.9339 70.7225V69.0331C83.9339 68.7658 83.7172 68.5492 83.45 68.5492ZM82.9661 70.3902L81.2076 71.0671C81.0587 71.1244 80.9476 71.2514 80.9107 71.4067C80.6602 72.4588 80.2448 73.4608 79.676 74.3845C79.5924 74.5204 79.5811 74.6888 79.6459 74.8347L80.4113 76.5582L78.4921 78.4775L76.7692 77.7124C76.6235 77.6476 76.455 77.6588 76.3191 77.7426C75.3954 78.3114 74.3933 78.7269 73.3405 78.9774C73.1853 79.0143 73.0582 79.1254 73.0009 79.2743L72.3241 81.0323H69.6098L68.9329 79.2737C68.8756 79.1248 68.7485 79.0137 68.5934 78.9768C67.5412 78.7264 66.5393 78.311 65.6155 77.7422C65.4797 77.6585 65.3112 77.6473 65.1655 77.7119L63.4419 78.4774L61.5226 76.5581L62.2878 74.8353C62.3525 74.6894 62.3413 74.521 62.2576 74.3851C61.6889 73.4617 61.2734 72.4596 61.0227 71.4065C60.9858 71.2513 60.8748 71.1242 60.7259 71.0669L58.9679 70.3902V69.517H64.6089C64.8568 72.8079 67.6138 75.4094 70.967 75.4094C74.3203 75.4094 77.0773 72.8078 77.3252 69.517H82.9663V70.3902H82.9661Z" fill="#185FC6"/>
<path d="M83.7502 62.1537L82.6249 61.504V56.2065L82.9849 56.1109C83.1969 56.0546 83.3445 55.8627 83.3445 55.6432C83.3445 55.4238 83.1969 55.2319 82.9849 55.1756L71.0911 52.0162C71.0097 51.9946 70.924 51.9946 70.8427 52.0162L58.9489 55.1756C58.7369 55.2319 58.5893 55.4238 58.5893 55.6432C58.5893 55.8627 58.7369 56.0546 58.9489 56.1109L62.3502 57.0144V63.1393C62.3502 63.373 62.5172 63.5733 62.7471 63.6153C64.132 63.8686 65.2739 64.0893 66.1915 64.2667C68.5569 64.7239 69.7619 64.9526 70.9669 64.9526C72.1719 64.9526 73.3769 64.7239 75.7423 64.2667C76.6598 64.0893 77.8018 63.8685 79.1867 63.6153C79.4166 63.5733 79.5836 63.373 79.5836 63.1393V57.0143L81.6571 56.4635V61.504L80.5319 62.1537C80.3821 62.2401 80.29 62.3998 80.29 62.5727V66.7426C80.29 66.926 80.3936 67.0936 80.5577 67.1755C80.7217 67.2574 80.9181 67.2395 81.0646 67.1293L82.1411 66.3199L83.2174 67.1293C83.3029 67.1935 83.4052 67.2264 83.5083 67.2264C83.582 67.2264 83.6559 67.2096 83.7243 67.1755C83.8884 67.0936 83.9921 66.926 83.9921 66.7426V62.5727C83.9921 62.3999 83.8999 62.2402 83.7502 62.1537ZM78.6158 62.7362C77.4033 62.9598 76.3893 63.1559 75.5586 63.3165C70.9668 64.2041 70.9668 64.2041 66.3752 63.3165C65.5445 63.1559 64.5305 62.9598 63.318 62.7362V57.2715L70.8426 59.2703C70.8833 59.2811 70.925 59.2865 70.9668 59.2865C71.0086 59.2865 71.0504 59.2811 71.0911 59.2703L78.6158 57.2715V62.7362ZM70.9669 58.3019L60.9579 55.6432L70.9668 52.9845L80.9759 55.6432L70.9669 58.3019ZM83.0244 65.7734L82.4319 65.3279C82.2597 65.1984 82.0225 65.1984 81.8503 65.3279L81.2578 65.7734V62.8521L82.1411 62.3421L83.0244 62.8521V65.7734ZM70.9669 73.3289C73.3356 73.3289 75.2628 71.4018 75.2628 69.0331C75.2628 68.7659 75.0461 68.5492 74.7789 68.5492H67.1549C66.8877 68.5492 66.671 68.7659 66.671 69.0331C66.671 71.4018 68.5981 73.3289 70.9669 73.3289ZM74.2599 69.517C74.0249 71.1235 72.6377 72.3612 70.9669 72.3612C69.2961 72.3612 67.9089 71.1235 67.6739 69.517H74.2599ZM83.45 68.5492H76.8594C76.5921 68.5492 76.3755 68.7659 76.3755 69.0331C76.3755 72.0154 73.9492 74.4417 70.9668 74.4417C67.9845 74.4417 65.5582 72.0154 65.5582 69.0331C65.5582 68.7659 65.3416 68.5492 65.0744 68.5492H58.4839C58.2167 68.5492 58 68.7659 58 69.0331V70.7225C58 70.9227 58.1233 71.1021 58.31 71.174L60.1435 71.8798C60.4007 72.8596 60.7892 73.7967 61.3012 74.6723L60.5032 76.469C60.422 76.652 60.4618 76.8661 60.6033 77.0076L62.9925 79.3967C63.134 79.5382 63.348 79.578 63.531 79.4968L65.3284 78.6985C66.2042 79.2105 67.1411 79.599 68.12 79.8559L68.826 81.69C68.8978 81.8768 69.0773 82 69.2775 82H72.6563C72.8565 82 73.036 81.8767 73.1079 81.69L73.8137 79.8564C74.7931 79.5994 75.7303 79.2108 76.6061 78.6987L78.4029 79.4968C78.5859 79.5781 78.7998 79.5382 78.9414 79.3967L81.3306 77.0075C81.4721 76.866 81.5118 76.652 81.4306 76.469L80.6323 74.6716C81.1443 73.7958 81.5328 72.8589 81.7898 71.88L83.6238 71.174C83.8106 71.1022 83.9339 70.9227 83.9339 70.7225V69.0331C83.9339 68.7658 83.7172 68.5492 83.45 68.5492ZM82.9661 70.3902L81.2076 71.0671C81.0587 71.1244 80.9476 71.2514 80.9107 71.4067C80.6602 72.4588 80.2448 73.4608 79.676 74.3845C79.5924 74.5204 79.5811 74.6888 79.6459 74.8347L80.4113 76.5582L78.4921 78.4775L76.7692 77.7124C76.6235 77.6476 76.455 77.6588 76.3191 77.7426C75.3954 78.3114 74.3933 78.7269 73.3405 78.9774C73.1853 79.0143 73.0582 79.1254 73.0009 79.2743L72.3241 81.0323H69.6098L68.9329 79.2737C68.8756 79.1248 68.7485 79.0137 68.5934 78.9768C67.5412 78.7264 66.5393 78.311 65.6155 77.7422C65.4797 77.6585 65.3112 77.6473 65.1655 77.7119L63.4419 78.4774L61.5226 76.5581L62.2878 74.8353C62.3525 74.6894 62.3413 74.521 62.2576 74.3851C61.6889 73.4617 61.2734 72.4596 61.0227 71.4065C60.9858 71.2513 60.8748 71.1242 60.7259 71.0669L58.9679 70.3902V69.517H64.6089C64.8568 72.8079 67.6138 75.4094 70.967 75.4094C74.3203 75.4094 77.0773 72.8078 77.3252 69.517H82.9663V70.3902H82.9661Z" stroke="#185FC6" stroke-width="0.4" mask="url(#path-3-outside-1_274_1203)"/>
</g>
</g>
<defs>
<filter id="filter0_d_274_1203" x="0" y="0" width="142" height="142" filterUnits="userSpaceOnUse" color-interpolation-filters="sRGB">
<feFlood flood-opacity="0" result="BackgroundImageFix"/>
<feColorMatrix in="SourceAlpha" type="matrix" values="0 0 0 0 0 0 0 0 0 0 0 0 0 0 0 0 0 0 127 0" result="hardAlpha"/>
<feOffset dy="4"/>
<feGaussianBlur stdDeviation="22"/>
<feComposite in2="hardAlpha" operator="out"/>
<feColorMatrix type="matrix" values="0 0 0 0 0 0 0 0 0 0 0 0 0 0 0 0 0 0 0.15 0"/>
<feBlend mode="normal" in2="BackgroundImageFix" result="effect1_dropShadow_274_1203"/>
<feBlend mode="normal" in="SourceGraphic" in2="effect1_dropShadow_274_1203" result="shape"/>
</filter>
</defs>
</svg>
