<?xml version="1.0" standalone="no"?>
<!DOCTYPE svg PUBLIC "-//W3C//DTD SVG 20010904//EN"
 "http://www.w3.org/TR/2001/REC-SVG-20010904/DTD/svg10.dtd">
<svg version="1.0" xmlns="http://www.w3.org/2000/svg"
 width="96.000000pt" height="96.000000pt" viewBox="0 0 96.000000 96.000000"
 preserveAspectRatio="xMidYMid meet">

<g transform="translate(0.000000,96.000000) scale(0.100000,-0.100000)"
fill="#000000" stroke="none">
<path d="M385 886 c-164 -41 -285 -171 -316 -340 -50 -271 206 -527 477 -477
181 33 312 164 345 345 53 284 -224 542 -506 472z m258 -64 c77 -38 148 -111
185 -190 23 -49 27 -70 27 -152 0 -82 -4 -103 -27 -152 -37 -80 -107 -152
-187 -191 -60 -29 -74 -32 -161 -32 -82 0 -103 4 -152 27 -80 37 -152 107
-191 187 -29 60 -32 74 -32 161 0 82 4 103 27 152 47 100 137 180 241 214 26
9 73 13 124 11 67 -3 92 -9 146 -35z"/>
</g>
</svg>
