<svg width="17" height="13" viewBox="0 0 17 13" fill="none" xmlns="http://www.w3.org/2000/svg">
<path id="Vector" d="M15.8955 4.85534L15.8956 4.85535C15.9907 4.90614 16.05 5.00512 16.05 5.11284C16.05 5.22056 15.9907 5.31954 15.8956 5.37034L15.8955 5.37035L13.8726 6.44929V9.46768C13.8726 9.55791 13.8308 9.64286 13.7599 9.69804C12.3046 10.8299 10.4882 11.4532 8.64468 11.4532H8.35508C7.46791 11.4532 6.5902 11.3122 5.74757 11.0345L5.70011 11.0189L5.71573 10.9714L5.86694 10.5117L5.88257 10.4642L5.93009 10.4799C6.71423 10.7383 7.53008 10.8693 8.35532 10.8693H8.64492C10.3118 10.8693 11.9553 10.3211 13.2887 9.32318V6.76077L8.63748 9.24156L8.63726 9.24167C8.59424 9.26435 8.54728 9.27575 8.5 9.27575C8.45272 9.27575 8.40576 9.26435 8.36274 9.24167L8.36252 9.24156L4.92097 7.40602V8.49639C5.33951 8.62228 5.64677 9.00784 5.64677 9.46768C5.64677 9.69163 5.5714 9.89614 5.44899 10.0637C5.57786 10.5121 5.64677 10.9744 5.64677 11.4424V12.129C5.64677 12.2396 5.5843 12.3406 5.48531 12.39L5.48536 12.39L5.46305 12.3454L5.48529 12.39L15.8955 4.85534ZM15.8955 4.85534L8.63748 0.98437L8.63744 0.98435M15.8955 4.85534L8.63744 0.98435M3.66129 9.46768V9.51768H3.61255C3.61171 9.50113 3.61129 9.48446 3.61129 9.46768H3.66129ZM3.66129 9.46768V9.41768V9.15317C3.67527 9.11056 3.692 9.06921 3.71129 9.02932V9.16134C3.67887 9.25749 3.66129 9.36048 3.66129 9.46768ZM8.63744 0.98435C8.55139 0.93855 8.44886 0.93855 8.3628 0.98435L8.36276 0.98437M8.63744 0.98435L8.36276 0.98437M8.36276 0.98437L1.10474 4.85532L8.36276 0.98437ZM3.80907 10.0637C3.81409 10.0705 3.81919 10.0773 3.82437 10.0841L3.86403 10.0536L3.81604 10.0396C3.8137 10.0476 3.81138 10.0556 3.80907 10.0637ZM3.66129 6.73411L3.71129 6.76077V6.70411L3.66129 6.67744V6.73411ZM4.3871 7.06454H4.3371V7.09454L4.36357 7.10865L4.3871 7.06454ZM4.3371 8.49639V8.53429H4.3871L4.37453 8.4859C4.36196 8.48916 4.34948 8.49266 4.3371 8.49639ZM5.91444 10.5274L5.89879 10.5748C5.89879 10.5749 5.8988 10.5749 5.89881 10.5749L5.91444 10.5274ZM5.77216 10.99L5.81072 11.0027L5.81076 11.0025C5.79789 10.9984 5.78502 10.9942 5.77216 10.99ZM3.12742 6.44929L3.15389 6.46341L3.17742 6.41929H3.12742V6.44929ZM4.95678 12.0015L4.95677 12.0015C4.75431 12.1026 4.50352 12.1026 4.30105 12.0015L4.19516 11.9486V11.4424C4.19516 11.1014 4.23452 10.7635 4.31224 10.4328C4.41162 10.4661 4.51781 10.4854 4.62903 10.4854C4.74026 10.4854 4.84645 10.4661 4.94582 10.4328C5.02354 10.7635 5.0629 11.1014 5.0629 11.4424V11.9485L4.95678 12.0015ZM5.0629 9.46768C5.0629 9.70692 4.86827 9.90155 4.62903 9.90155C4.38979 9.90155 4.19516 9.70692 4.19516 9.46768C4.19516 9.22844 4.38979 9.03381 4.62903 9.03381C4.86827 9.03381 5.0629 9.22844 5.0629 9.46768ZM8.5 1.57265L15.1377 5.11284L8.5 8.65279L5.14367 6.86276L8.03785 5.31931C8.17584 5.37258 8.33143 5.40478 8.5 5.40478C9.056 5.40478 9.51774 5.07591 9.51774 4.62897C9.51774 4.18204 9.056 3.85317 8.5 3.85317C7.944 3.85317 7.48226 4.18204 7.48226 4.62897C7.48226 4.73175 7.50884 4.82793 7.55395 4.91564L4.52331 6.53198L1.8623 5.11284L8.5 1.57265ZM8.06613 4.62897C8.06613 4.61987 8.07087 4.60327 8.08893 4.58114C8.10653 4.55957 8.13418 4.53612 8.17214 4.51437C8.24789 4.47098 8.36014 4.43704 8.5 4.43704C8.63986 4.43704 8.75211 4.47098 8.82786 4.51437C8.86582 4.53612 8.89347 4.55957 8.91107 4.58114C8.92913 4.60327 8.93387 4.61987 8.93387 4.62897C8.93387 4.63807 8.92913 4.65467 8.91107 4.67681C8.89347 4.69837 8.86582 4.72182 8.82786 4.74357C8.75211 4.78696 8.63986 4.82091 8.5 4.82091C8.36014 4.82091 8.24789 4.78696 8.17214 4.74357C8.13418 4.72182 8.10653 4.69837 8.08893 4.67681C8.07087 4.65467 8.06613 4.63807 8.06613 4.62897Z" fill="#4A4A4A" stroke="#4A4A4A" stroke-width="0.1"/>
</svg>
