<svg width="124" height="24" viewBox="0 0 124 24" fill="none" xmlns="http://www.w3.org/2000/svg">
<g id="Group 21386">
<path id="Star 6" d="M11.0489 2.92705C11.3483 2.00574 12.6517 2.00574 12.9511 2.92705L14.4697 7.60081C14.6035 8.01284 14.9875 8.2918 15.4207 8.2918H20.335C21.3037 8.2918 21.7065 9.53141 20.9228 10.1008L16.947 12.9894C16.5966 13.244 16.4499 13.6954 16.5838 14.1074L18.1024 18.7812C18.4017 19.7025 17.3472 20.4686 16.5635 19.8992L12.5878 17.0106C12.2373 16.756 11.7627 16.756 11.4122 17.0106L7.43648 19.8992C6.65276 20.4686 5.59828 19.7025 5.89763 18.7812L7.41623 14.1074C7.5501 13.6954 7.40345 13.244 7.05296 12.9894L3.07722 10.1008C2.29351 9.53141 2.69628 8.2918 3.66501 8.2918H8.57929C9.01252 8.2918 9.39647 8.01284 9.53035 7.60081L11.0489 2.92705Z" fill="#F69400"/>
<path id="Star 7" d="M61.0489 2.92705C61.3483 2.00574 62.6517 2.00574 62.9511 2.92705L64.4697 7.60081C64.6035 8.01284 64.9875 8.2918 65.4207 8.2918H70.335C71.3037 8.2918 71.7065 9.53141 70.9228 10.1008L66.947 12.9894C66.5966 13.244 66.4499 13.6954 66.5838 14.1074L68.1024 18.7812C68.4017 19.7025 67.3472 20.4686 66.5635 19.8992L62.5878 17.0106C62.2373 16.756 61.7627 16.756 61.4122 17.0106L57.4365 19.8992C56.6528 20.4686 55.5983 19.7025 55.8976 18.7812L57.4162 14.1074C57.5501 13.6954 57.4034 13.244 57.053 12.9894L53.0772 10.1008C52.2935 9.53141 52.6963 8.2918 53.665 8.2918H58.5793C59.0125 8.2918 59.3965 8.01284 59.5303 7.60081L61.0489 2.92705Z" fill="#F69400"/>
<path id="Star 8" d="M36.0489 2.92705C36.3483 2.00574 37.6517 2.00574 37.9511 2.92705L39.4697 7.60081C39.6035 8.01284 39.9875 8.2918 40.4207 8.2918H45.335C46.3037 8.2918 46.7065 9.53141 45.9228 10.1008L41.947 12.9894C41.5966 13.244 41.4499 13.6954 41.5838 14.1074L43.1024 18.7812C43.4017 19.7025 42.3472 20.4686 41.5635 19.8992L37.5878 17.0106C37.2373 16.756 36.7627 16.756 36.4122 17.0106L32.4365 19.8992C31.6528 20.4686 30.5983 19.7025 30.8976 18.7812L32.4162 14.1074C32.5501 13.6954 32.4034 13.244 32.053 12.9894L28.0772 10.1008C27.2935 9.53141 27.6963 8.2918 28.665 8.2918H33.5793C34.0125 8.2918 34.3965 8.01284 34.5303 7.60081L36.0489 2.92705Z" fill="#F69400"/>
<path id="Star 9" d="M86.0489 2.92705C86.3483 2.00574 87.6517 2.00574 87.9511 2.92705L89.4697 7.60081C89.6035 8.01284 89.9875 8.2918 90.4207 8.2918H95.335C96.3037 8.2918 96.7065 9.53141 95.9228 10.1008L91.947 12.9894C91.5966 13.244 91.4499 13.6954 91.5838 14.1074L93.1024 18.7812C93.4017 19.7025 92.3472 20.4686 91.5635 19.8992L87.5878 17.0106C87.2373 16.756 86.7627 16.756 86.4122 17.0106L82.4365 19.8992C81.6528 20.4686 80.5983 19.7025 80.8976 18.7812L82.4162 14.1074C82.5501 13.6954 82.4034 13.244 82.053 12.9894L78.0772 10.1008C77.2935 9.53141 77.6963 8.2918 78.665 8.2918H83.5793C84.0125 8.2918 84.3965 8.01284 84.5303 7.60081L86.0489 2.92705Z" fill="#F69400"/>
<path id="Star 10" d="M111.049 2.92705C111.348 2.00574 112.652 2.00574 112.951 2.92705L114.47 7.60081C114.604 8.01284 114.987 8.2918 115.421 8.2918H120.335C121.304 8.2918 121.706 9.53141 120.923 10.1008L116.947 12.9894C116.597 13.244 116.45 13.6954 116.584 14.1074L118.102 18.7812C118.402 19.7025 117.347 20.4686 116.564 19.8992L112.588 17.0106C112.237 16.756 111.763 16.756 111.412 17.0106L107.436 19.8992C106.653 20.4686 105.598 19.7025 105.898 18.7812L107.416 14.1074C107.55 13.6954 107.403 13.244 107.053 12.9894L103.077 10.1008C102.294 9.53141 102.696 8.2918 103.665 8.2918H108.579C109.013 8.2918 109.396 8.01284 109.53 7.60081L111.049 2.92705Z" fill="#F69400"/>
<g id="Mask group">
<mask id="mask0_705_3579" style="mask-type:alpha" maskUnits="userSpaceOnUse" x="102" y="2" width="20" height="19">
<path id="Star 11" d="M111.049 2.92705C111.348 2.00574 112.652 2.00574 112.951 2.92705L114.47 7.60081C114.604 8.01284 114.987 8.2918 115.421 8.2918H120.335C121.304 8.2918 121.706 9.53141 120.923 10.1008L116.947 12.9894C116.597 13.244 116.45 13.6954 116.584 14.1074L118.102 18.7812C118.402 19.7025 117.347 20.4686 116.564 19.8992L112.588 17.0106C112.237 16.756 111.763 16.756 111.412 17.0106L107.436 19.8992C106.653 20.4686 105.598 19.7025 105.898 18.7812L107.416 14.1074C107.55 13.6954 107.403 13.244 107.053 12.9894L103.077 10.1008C102.294 9.53141 102.696 8.2918 103.665 8.2918H108.579C109.013 8.2918 109.396 8.01284 109.53 7.60081L111.049 2.92705Z" fill="#F69400"/>
</mask>
<g mask="url(#mask0_705_3579)">
<rect id="Rectangle 4174" x="112" y="2" width="11" height="18" fill="#FFE9C8"/>
</g>
</g>
</g>
</svg>
