<svg width="92" height="26" viewBox="0 0 92 26" fill="none" xmlns="http://www.w3.org/2000/svg">
<g id="nodejs-logo-vector 1" clip-path="url(#clip0_702_1358)">
<g id="Group">
<path id="Vector" d="M84.6408 9.25439C84.4173 9.25439 84.1999 9.30048 84.0074 9.40914L77.9182 12.9182C77.5242 13.1449 77.2847 13.5727 77.2847 14.028V21.0335C77.2847 21.4884 77.5242 21.9157 77.9182 22.1429L79.5085 23.059C80.2811 23.4389 80.5659 23.433 80.9176 23.433C82.0614 23.433 82.7146 22.7403 82.7146 21.5366V14.6213C82.7146 14.5236 82.6298 14.4537 82.5336 14.4537H81.7709C81.6731 14.4537 81.5899 14.5236 81.5899 14.6213V21.5366C81.5899 22.0701 81.0329 22.6067 80.1291 22.1558L78.4742 21.1882C78.4156 21.1565 78.3707 21.1004 78.3707 21.0335V14.0278C78.3707 13.9615 78.4151 13.8939 78.4742 13.8602L84.5504 10.3641C84.5779 10.3481 84.6091 10.3397 84.6409 10.3397C84.6727 10.3397 84.7039 10.3481 84.7314 10.3641L90.8078 13.8603C90.8657 13.8951 90.9113 13.9595 90.9113 14.0282V21.0337C90.9113 21.1005 90.8775 21.169 90.8207 21.2013L84.7314 24.6975C84.6793 24.7285 84.6074 24.7285 84.5504 24.6975L82.9861 23.7687C82.9623 23.7558 82.9356 23.749 82.9086 23.749C82.8815 23.749 82.8548 23.7558 82.831 23.7687C82.3992 24.0129 82.318 24.0412 81.913 24.1814C81.8133 24.2162 81.6618 24.2702 81.9648 24.4397L84.0074 25.6392C84.2 25.7501 84.4186 25.808 84.641 25.8071C84.8633 25.8085 85.082 25.7506 85.2744 25.6394L91.3637 22.143C91.7578 21.9144 91.9971 21.4886 91.9971 21.0337V14.028C91.9971 13.5729 91.7578 13.1458 91.3637 12.9186L85.2744 9.4095C85.0836 9.30066 84.8647 9.25457 84.641 9.25457L84.6408 9.25439Z" fill="#83CD29"/>
<path id="Vector_2" d="M86.2698 14.2602C84.5359 14.2602 83.5032 14.9966 83.5032 16.2213C83.5032 17.5496 84.5281 17.9147 86.1924 18.079C88.1833 18.2735 88.3384 18.5653 88.3384 18.9563C88.3384 19.6347 87.7964 19.9239 86.5156 19.9239C84.9062 19.9239 84.5526 19.523 84.4342 18.7241C84.4201 18.6384 84.3538 18.5692 84.266 18.5692H83.4773C83.3803 18.5692 83.2964 18.6528 83.2964 18.7499C83.2964 19.7726 83.8538 20.9818 86.5156 20.9818C88.4424 20.9818 89.5538 20.2271 89.5538 18.9047C89.5538 17.5939 88.656 17.2419 86.787 16.9954C84.8985 16.746 84.7184 16.6239 84.7184 16.1826C84.7184 15.8182 84.8712 15.3309 86.2698 15.3309C87.5194 15.3309 87.9811 15.5998 88.1704 16.4406C88.1869 16.5195 88.2566 16.5824 88.3384 16.5824H89.1272C89.1757 16.5824 89.2228 16.5527 89.2564 16.5179C89.2894 16.4808 89.3128 16.439 89.3081 16.389C89.1859 14.9412 88.2185 14.2602 86.2698 14.2602Z" fill="#83CD29"/>
</g>
<path id="Vector_3" d="M48.8421 0.0686868C48.7741 0.0687319 48.7072 0.0864681 48.6481 0.120149C48.5893 0.154446 48.5405 0.203421 48.5066 0.262249C48.4726 0.321077 48.4545 0.387729 48.4542 0.455638V10.3252C48.4542 10.4221 48.4091 10.5089 48.325 10.5574C48.2838 10.5814 48.2369 10.594 48.1892 10.594C48.1415 10.594 48.0947 10.5814 48.0535 10.5574L46.4374 9.62862C46.3195 9.56055 46.1857 9.52472 46.0495 9.52472C45.9133 9.52472 45.7796 9.56055 45.6617 9.62862L39.2104 13.3441C38.9693 13.4831 38.8227 13.7501 38.8227 14.028V21.4592C38.8227 21.7367 38.9695 21.991 39.2104 22.13L45.6617 25.8456C45.7795 25.9139 45.9133 25.9498 46.0495 25.9498C46.1858 25.9498 46.3196 25.9139 46.4374 25.8456L52.8886 22.13C53.0067 22.0621 53.1048 21.9644 53.1729 21.8466C53.2411 21.7288 53.2768 21.5951 53.2766 21.4592V2.93281C53.2764 2.79363 53.2392 2.65699 53.1688 2.53684C53.0984 2.41669 52.9973 2.31734 52.8759 2.24892L49.036 0.107239C48.9758 0.0737075 48.909 0.0677903 48.8421 0.0686868ZM7.34195 9.34477C7.21905 9.34961 7.10333 9.37113 6.993 9.43496L0.541573 13.1506C0.423396 13.2184 0.32528 13.3161 0.257179 13.4339C0.189078 13.5517 0.153417 13.6854 0.153812 13.8214L0.166749 23.7945C0.166749 23.9331 0.238444 24.062 0.36063 24.1298C0.419209 24.1649 0.486261 24.1835 0.5546 24.1835C0.62294 24.1835 0.689992 24.1649 0.748571 24.1298L4.57533 21.9367C4.81773 21.7929 4.97603 21.5429 4.97603 21.2657V16.6083C4.97603 16.3303 5.12248 16.0754 5.36397 15.9373L6.99282 14.9956C7.11059 14.9272 7.24453 14.8916 7.38076 14.8923C7.51373 14.8923 7.65029 14.9254 7.76852 14.9956L9.39755 15.9373C9.51584 16.005 9.61405 16.1027 9.68219 16.2206C9.75033 16.3384 9.78598 16.4722 9.78549 16.6083V21.2655C9.78549 21.5427 9.94541 21.7945 10.1862 21.9365L14.013 24.1298C14.0715 24.1649 14.1386 24.1835 14.2069 24.1835C14.2753 24.1835 14.3423 24.1649 14.4009 24.1298C14.4599 24.0957 14.5088 24.0468 14.5429 23.988C14.5769 23.9291 14.5949 23.8623 14.595 23.7943L14.6075 13.8214C14.6083 13.6854 14.5728 13.5515 14.5047 13.4336C14.4365 13.3158 14.3382 13.2181 14.2198 13.1506L7.76852 9.43496C7.65946 9.37113 7.54338 9.34979 7.41958 9.34477H7.34195ZM65.3128 9.43496C65.178 9.43496 65.046 9.46903 64.925 9.53825L58.4738 13.2539C58.3557 13.3217 58.2576 13.4195 58.1895 13.5373C58.1213 13.6551 58.0856 13.7887 58.0859 13.9247V21.3559C58.0859 21.6354 58.2436 21.8886 58.4866 22.0269L64.8862 25.6651C65.1225 25.7995 65.4111 25.8098 65.649 25.6776L69.5275 23.5232C69.6506 23.4551 69.7338 23.3277 69.7343 23.1879C69.735 23.1198 69.7174 23.0527 69.6833 22.9937C69.6492 22.9347 69.5999 22.8859 69.5405 22.8524L63.0504 19.1367C62.9289 19.0675 62.8436 18.9275 62.8436 18.7883V16.4663C62.8436 16.3273 62.9298 16.2 63.0504 16.1308L65.0672 14.9696C65.1261 14.9355 65.193 14.9176 65.2612 14.9176C65.3293 14.9176 65.3962 14.9355 65.4551 14.9696L67.4717 16.1308C67.5308 16.1646 67.5799 16.2135 67.614 16.2724C67.648 16.3313 67.6659 16.3981 67.6658 16.4661V18.2981C67.6656 18.3661 67.6834 18.4329 67.7175 18.4918C67.7515 18.5507 67.8006 18.5995 67.8597 18.6334C67.9806 18.7032 68.1269 18.7033 68.2474 18.6334L72.1132 16.389C72.2311 16.3209 72.329 16.2231 72.3971 16.1053C72.4652 15.9875 72.5011 15.854 72.5011 15.718V13.9249C72.5011 13.6479 72.3538 13.3931 72.1132 13.2539L65.7008 9.53825C65.5829 9.4702 65.449 9.43444 65.3128 9.43496ZM46.0236 14.9826C46.0574 14.9826 46.0969 14.9909 46.1271 15.0083L48.3379 16.2855C48.3979 16.3201 48.4414 16.3841 48.4414 16.4532V19.0076C48.4414 19.077 48.3983 19.1409 48.3379 19.1755L46.1271 20.4527C46.0975 20.4695 46.0641 20.4784 46.0301 20.4784C45.9961 20.4784 45.9627 20.4695 45.9332 20.4527L43.7225 19.1755C43.6623 19.1407 43.619 19.077 43.619 19.0076V16.4532C43.619 16.384 43.6625 16.3205 43.7225 16.2855L45.9332 15.0085C45.9604 14.9916 45.9917 14.9827 46.0237 14.9828L46.0236 14.9826Z" fill="#404137"/>
<path id="Vector_4" d="M26.7216 9.39624C26.5872 9.39624 26.4542 9.43031 26.3338 9.49953L19.8826 13.2023C19.6413 13.3409 19.4946 13.6084 19.4946 13.886V21.3172C19.4946 21.5951 19.6414 21.849 19.8826 21.9881L26.3338 25.7036C26.4516 25.7719 26.5854 25.8079 26.7217 25.8079C26.8579 25.8079 26.9917 25.7719 27.1095 25.7036L33.5608 21.9881C33.6789 21.9203 33.7769 21.8225 33.845 21.7046C33.9131 21.5868 33.9488 21.4532 33.9485 21.3172V13.886C33.9485 13.6081 33.8019 13.3409 33.5608 13.2023L27.1095 9.49953C26.9916 9.43156 26.8578 9.39593 26.7216 9.39624ZM65.2999 16.0277C65.2742 16.0277 65.2456 16.0277 65.2224 16.0406L63.9814 16.763C63.9582 16.7759 63.9388 16.7945 63.9252 16.8172C63.9116 16.8399 63.9042 16.8657 63.9037 16.8921V18.3112C63.9037 18.3646 63.9346 18.4136 63.9814 18.4403L65.2224 19.1498C65.269 19.1767 65.3186 19.1767 65.3646 19.1498L66.6057 18.4401C66.6287 18.4272 66.648 18.4085 66.6616 18.3859C66.6752 18.3633 66.6827 18.3376 66.6833 18.3112V16.892C66.6827 16.8656 66.6752 16.8398 66.6616 16.8172C66.648 16.7946 66.6287 16.7759 66.6057 16.763L65.3646 16.0404C65.3416 16.027 65.3258 16.0277 65.2999 16.0277Z" fill="#83CD29"/>
</g>
<defs>
<clipPath id="clip0_702_1358">
<rect width="92" height="26" fill="white"/>
</clipPath>
</defs>
</svg>
